M48
; DRILL file {KiCad (6.0.0-0)} date Monday, September 02, 2024 at 12:42:30 PM
; FORMAT={-:-/ absolute / metric / decimal}
; #@! TF.CreationDate,2024-09-02T12:42:30-04:00
; #@! TF.GenerationSoftware,Kicad,Pcbnew,(6.0.0-0)
; #@! TF.FileFunction,Plated,1,2,PTH
FMAT,2
METRIC
; #@! TA.AperFunction,Plated,PTH,ViaDrill
T1C0.400
; #@! TA.AperFunction,Plated,PTH,ComponentDrill
T2C0.800
; #@! TA.AperFunction,Plated,PTH,ComponentDrill
T3C0.900
; #@! TA.AperFunction,Plated,PTH,ComponentDrill
T4C1.000
%
G90
G05
T1
X54.675Y-78.2
X54.7Y-52.475
X55.425Y-102.975
X63.025Y-89.775
X71.15Y-71.05
X71.9Y-99.0
X75.675Y-83.675
X86.7Y-65.4
X87.25Y-72.7
X91.35Y-97.55
X92.225Y-79.45
X95.75Y-57.175
X99.525Y-88.875
X101.85Y-82.375
X103.55Y-76.725
X106.012Y-86.188
X106.825Y-64.15
X112.125Y-92.875
X112.125Y-99.0
X122.475Y-59.0
X124.175Y-72.4
X124.925Y-82.875
X128.7Y-83.475
X130.0Y-65.45
X131.65Y-56.425
X131.95Y-99.575
X132.8Y-88.175
X135.4Y-52.2
X140.525Y-77.775
X145.075Y-91.2
X150.425Y-92.625
X150.575Y-99.0
X155.775Y-89.775
X156.925Y-75.075
X164.4Y-81.875
X166.94Y-81.835
X167.325Y-59.425
X170.725Y-98.9
X171.675Y-77.125
X173.025Y-82.3
X178.375Y-91.025
X187.1Y-52.575
X191.5Y-99.0
X192.525Y-79.775
X205.975Y-68.15
X208.225Y-58.925
X209.15Y-91.35
X212.5Y-99.575
X213.675Y-84.475
X230.45Y-99.0
X242.7Y-88.45
X243.875Y-66.4
X258.35Y-103.075
X258.85Y-52.7
T2
X141.54Y-70.83
X141.54Y-86.07
X144.08Y-70.83
X144.08Y-86.07
X146.62Y-70.83
X146.62Y-86.07
X149.16Y-70.83
X149.16Y-86.07
X151.7Y-70.83
X151.7Y-86.07
X154.24Y-70.83
X154.24Y-86.07
X156.78Y-70.83
X156.78Y-86.07
X159.32Y-70.83
X159.32Y-86.07
X161.86Y-70.83
X161.86Y-86.07
X164.4Y-70.83
X164.4Y-86.07
X166.94Y-70.83
X166.94Y-86.07
X169.48Y-70.83
X169.48Y-86.07
X172.02Y-70.83
X172.02Y-86.07
X174.56Y-70.83
X174.56Y-86.07
X177.1Y-70.83
X177.1Y-86.07
T3
X76.46Y-59.0
X79.0Y-59.0
X115.46Y-59.0
X118.0Y-59.0
X156.46Y-59.0
X159.0Y-59.0
X196.0Y-59.0
X198.54Y-59.0
X235.46Y-59.0
X238.0Y-59.0
T4
X64.46Y-99.0
X66.25Y-65.695
X66.25Y-68.235
X66.25Y-70.775
X66.25Y-73.315
X66.25Y-75.855
X66.25Y-78.395
X66.25Y-80.935
X66.25Y-83.475
X67.0Y-99.0
X104.46Y-99.0
X107.0Y-99.0
X115.325Y-76.81
X115.325Y-79.35
X144.46Y-99.0
X147.0Y-99.0
X184.46Y-99.0
X187.0Y-99.0
X224.46Y-99.0
X227.0Y-99.0
X257.0Y-69.84
X257.0Y-72.38
X257.0Y-74.92
X257.0Y-77.46
X257.0Y-80.0
T0
M30
