%TF.GenerationSoftware,KiCad,Pcbnew,(6.0.0-0)*%
%TF.CreationDate,2024-09-02T12:42:36-04:00*%
%TF.ProjectId,HappySwitchV3,48617070-7953-4776-9974-636856332e6b,rev?*%
%TF.SameCoordinates,Original*%
%TF.FileFunction,Soldermask,Top*%
%TF.FilePolarity,Negative*%
%FSLAX46Y46*%
G04 Gerber Fmt 4.6, Leading zero omitted, Abs format (unit mm)*
G04 Created by KiCad (PCBNEW (6.0.0-0)) date 2024-09-02 12:42:36*
%MOMM*%
%LPD*%
G01*
G04 APERTURE LIST*
G04 Aperture macros list*
%AMRoundRect*
0 Rectangle with rounded corners*
0 $1 Rounding radius*
0 $2 $3 $4 $5 $6 $7 $8 $9 X,Y pos of 4 corners*
0 Add a 4 corners polygon primitive as box body*
4,1,4,$2,$3,$4,$5,$6,$7,$8,$9,$2,$3,0*
0 Add four circle primitives for the rounded corners*
1,1,$1+$1,$2,$3*
1,1,$1+$1,$4,$5*
1,1,$1+$1,$6,$7*
1,1,$1+$1,$8,$9*
0 Add four rect primitives between the rounded corners*
20,1,$1+$1,$2,$3,$4,$5,0*
20,1,$1+$1,$4,$5,$6,$7,0*
20,1,$1+$1,$6,$7,$8,$9,0*
20,1,$1+$1,$8,$9,$2,$3,0*%
G04 Aperture macros list end*
%ADD10R,1.700000X1.700000*%
%ADD11O,1.700000X1.700000*%
%ADD12R,1.600000X1.600000*%
%ADD13O,1.600000X1.600000*%
%ADD14R,1.800000X1.800000*%
%ADD15C,1.800000*%
%ADD16RoundRect,0.250000X0.450000X-0.262500X0.450000X0.262500X-0.450000X0.262500X-0.450000X-0.262500X0*%
%ADD17R,0.600800X1.111200*%
%ADD18R,1.111200X0.600800*%
%ADD19RoundRect,0.250000X-0.262500X-0.450000X0.262500X-0.450000X0.262500X0.450000X-0.262500X0.450000X0*%
%ADD20RoundRect,0.250000X0.262500X0.450000X-0.262500X0.450000X-0.262500X-0.450000X0.262500X-0.450000X0*%
%ADD21RoundRect,0.250000X-0.450000X0.262500X-0.450000X-0.262500X0.450000X-0.262500X0.450000X0.262500X0*%
%ADD22R,1.320800X0.660400*%
G04 APERTURE END LIST*
D10*
%TO.C,REF\u002A\u002A*%
X115325000Y-79350000D03*
D11*
X115325000Y-76810000D03*
%TD*%
D12*
%TO.C,U1*%
X177100000Y-70830000D03*
D13*
X144080000Y-86070000D03*
X174560000Y-70830000D03*
X146620000Y-86070000D03*
X172020000Y-70830000D03*
X149160000Y-86070000D03*
X169480000Y-70830000D03*
X151700000Y-86070000D03*
X166940000Y-70830000D03*
X154240000Y-86070000D03*
X164400000Y-70830000D03*
X156780000Y-86070000D03*
X161860000Y-70830000D03*
X159320000Y-86070000D03*
X159320000Y-70830000D03*
X161860000Y-86070000D03*
X156780000Y-70830000D03*
X164400000Y-86070000D03*
X154240000Y-70830000D03*
X166940000Y-86070000D03*
X151700000Y-70830000D03*
X169480000Y-86070000D03*
X149160000Y-70830000D03*
X172020000Y-86070000D03*
X146620000Y-70830000D03*
X174560000Y-86070000D03*
X144080000Y-70830000D03*
X177100000Y-86070000D03*
X141540000Y-70830000D03*
X141540000Y-86070000D03*
%TD*%
D14*
%TO.C,D2*%
X238000000Y-59000000D03*
D15*
X235460000Y-59000000D03*
%TD*%
D16*
%TO.C,R15*%
X130000000Y-63912500D03*
X130000000Y-62087500D03*
%TD*%
%TO.C,R16*%
X61000000Y-59000000D03*
X61000000Y-57175000D03*
%TD*%
D17*
%TO.C,D1*%
X232675000Y-79675000D03*
X232675000Y-76225000D03*
%TD*%
D16*
%TO.C,R2*%
X179000000Y-59000000D03*
X179000000Y-57175000D03*
%TD*%
D18*
%TO.C,D6*%
X90275000Y-76925000D03*
X86825000Y-76925000D03*
%TD*%
D14*
%TO.C,D7*%
X118000000Y-59000000D03*
D15*
X115460000Y-59000000D03*
%TD*%
D16*
%TO.C,R1*%
X220000000Y-59000000D03*
X220000000Y-57175000D03*
%TD*%
D10*
%TO.C,J2*%
X257000000Y-80000000D03*
D11*
X257000000Y-77460000D03*
X257000000Y-74920000D03*
X257000000Y-72380000D03*
X257000000Y-69840000D03*
%TD*%
D19*
%TO.C,R13*%
X207175000Y-79000000D03*
X209000000Y-79000000D03*
%TD*%
%TO.C,R17*%
X108087500Y-59000000D03*
X109912500Y-59000000D03*
%TD*%
D20*
%TO.C,R25*%
X239962500Y-76100000D03*
X238137500Y-76100000D03*
%TD*%
%TO.C,R3*%
X141825000Y-59000000D03*
X140000000Y-59000000D03*
%TD*%
D21*
%TO.C,R21*%
X156000000Y-97087500D03*
X156000000Y-98912500D03*
%TD*%
D20*
%TO.C,R23*%
X77912500Y-99000000D03*
X76087500Y-99000000D03*
%TD*%
D16*
%TO.C,R10*%
X77225000Y-87825000D03*
X77225000Y-86000000D03*
%TD*%
D10*
%TO.C,SW3*%
X147000000Y-99000000D03*
D11*
X144460000Y-99000000D03*
%TD*%
D14*
%TO.C,D8*%
X79000000Y-59000000D03*
D15*
X76460000Y-59000000D03*
%TD*%
D19*
%TO.C,R9*%
X96350000Y-82500000D03*
X98175000Y-82500000D03*
%TD*%
D10*
%TO.C,SW1*%
X227000000Y-99000000D03*
D11*
X224460000Y-99000000D03*
%TD*%
D10*
%TO.C,SW2*%
X187000000Y-99000000D03*
D11*
X184460000Y-99000000D03*
%TD*%
D14*
%TO.C,D4*%
X159000000Y-59000000D03*
D15*
X156460000Y-59000000D03*
%TD*%
D20*
%TO.C,R7*%
X150912500Y-59000000D03*
X149087500Y-59000000D03*
%TD*%
D14*
%TO.C,D3*%
X198540000Y-59000000D03*
D15*
X196000000Y-59000000D03*
%TD*%
D19*
%TO.C,R8*%
X96262500Y-76925000D03*
X98087500Y-76925000D03*
%TD*%
D18*
%TO.C,D5*%
X90550000Y-82400000D03*
X87100000Y-82400000D03*
%TD*%
D20*
%TO.C,R5*%
X229912500Y-59000000D03*
X228087500Y-59000000D03*
%TD*%
D19*
%TO.C,R4*%
X237962500Y-80525000D03*
X239787500Y-80525000D03*
%TD*%
D22*
%TO.C,Q1*%
X226851400Y-79540000D03*
X226851400Y-77000000D03*
X226851400Y-74460000D03*
X217148600Y-74460000D03*
X217148600Y-77000000D03*
X217148600Y-79540000D03*
%TD*%
D21*
%TO.C,R19*%
X234000000Y-97087500D03*
X234000000Y-98912500D03*
%TD*%
D16*
%TO.C,R11*%
X77225000Y-75200000D03*
X77225000Y-73375000D03*
%TD*%
D21*
%TO.C,R20*%
X197000000Y-97087500D03*
X197000000Y-98912500D03*
%TD*%
%TO.C,R22*%
X115912500Y-97087500D03*
X115912500Y-98912500D03*
%TD*%
D19*
%TO.C,R18*%
X69087500Y-59000000D03*
X70912500Y-59000000D03*
%TD*%
D10*
%TO.C,SW4*%
X107000000Y-99000000D03*
D11*
X104460000Y-99000000D03*
%TD*%
D10*
%TO.C,SW5*%
X67000000Y-99000000D03*
D11*
X64460000Y-99000000D03*
%TD*%
D20*
%TO.C,R6*%
X189912500Y-59000000D03*
X188087500Y-59000000D03*
%TD*%
D16*
%TO.C,R12*%
X77250000Y-67912500D03*
X77250000Y-66087500D03*
%TD*%
D19*
%TO.C,R14*%
X200175000Y-77000000D03*
X202000000Y-77000000D03*
%TD*%
D10*
%TO.C,J1*%
X66250000Y-83475000D03*
D11*
X66250000Y-80935000D03*
X66250000Y-78395000D03*
X66250000Y-75855000D03*
X66250000Y-73315000D03*
X66250000Y-70775000D03*
X66250000Y-68235000D03*
X66250000Y-65695000D03*
%TD*%
M02*
