%TF.GenerationSoftware,KiCad,Pcbnew,(6.0.0-0)*%
%TF.CreationDate,2024-09-02T12:42:35-04:00*%
%TF.ProjectId,HappySwitchV3,48617070-7953-4776-9974-636856332e6b,rev?*%
%TF.SameCoordinates,Original*%
%TF.FileFunction,Legend,Top*%
%TF.FilePolarity,Positive*%
%FSLAX46Y46*%
G04 Gerber Fmt 4.6, Leading zero omitted, Abs format (unit mm)*
G04 Created by KiCad (PCBNEW (6.0.0-0)) date 2024-09-02 12:42:35*
%MOMM*%
%LPD*%
G01*
G04 APERTURE LIST*
G04 Aperture macros list*
%AMRoundRect*
0 Rectangle with rounded corners*
0 $1 Rounding radius*
0 $2 $3 $4 $5 $6 $7 $8 $9 X,Y pos of 4 corners*
0 Add a 4 corners polygon primitive as box body*
4,1,4,$2,$3,$4,$5,$6,$7,$8,$9,$2,$3,0*
0 Add four circle primitives for the rounded corners*
1,1,$1+$1,$2,$3*
1,1,$1+$1,$4,$5*
1,1,$1+$1,$6,$7*
1,1,$1+$1,$8,$9*
0 Add four rect primitives between the rounded corners*
20,1,$1+$1,$2,$3,$4,$5,0*
20,1,$1+$1,$4,$5,$6,$7,0*
20,1,$1+$1,$6,$7,$8,$9,0*
20,1,$1+$1,$8,$9,$2,$3,0*%
G04 Aperture macros list end*
%ADD10C,0.150000*%
%ADD11C,0.120000*%
%ADD12C,0.152400*%
%ADD13R,1.700000X1.700000*%
%ADD14O,1.700000X1.700000*%
%ADD15R,1.600000X1.600000*%
%ADD16O,1.600000X1.600000*%
%ADD17R,1.800000X1.800000*%
%ADD18C,1.800000*%
%ADD19RoundRect,0.250000X0.450000X-0.262500X0.450000X0.262500X-0.450000X0.262500X-0.450000X-0.262500X0*%
%ADD20R,0.600800X1.111200*%
%ADD21R,1.111200X0.600800*%
%ADD22RoundRect,0.250000X-0.262500X-0.450000X0.262500X-0.450000X0.262500X0.450000X-0.262500X0.450000X0*%
%ADD23RoundRect,0.250000X0.262500X0.450000X-0.262500X0.450000X-0.262500X-0.450000X0.262500X-0.450000X0*%
%ADD24RoundRect,0.250000X-0.450000X0.262500X-0.450000X-0.262500X0.450000X-0.262500X0.450000X0.262500X0*%
%ADD25R,1.320800X0.660400*%
G04 APERTURE END LIST*
D10*
X118107142Y-78850000D02*
X118011904Y-78802380D01*
X117869047Y-78802380D01*
X117726190Y-78850000D01*
X117630952Y-78945238D01*
X117583333Y-79040476D01*
X117535714Y-79230952D01*
X117535714Y-79373809D01*
X117583333Y-79564285D01*
X117630952Y-79659523D01*
X117726190Y-79754761D01*
X117869047Y-79802380D01*
X117964285Y-79802380D01*
X118107142Y-79754761D01*
X118154761Y-79707142D01*
X118154761Y-79373809D01*
X117964285Y-79373809D01*
X118583333Y-79802380D02*
X118583333Y-78802380D01*
X119154761Y-79802380D01*
X119154761Y-78802380D01*
X119630952Y-79802380D02*
X119630952Y-78802380D01*
X119869047Y-78802380D01*
X120011904Y-78850000D01*
X120107142Y-78945238D01*
X120154761Y-79040476D01*
X120202380Y-79230952D01*
X120202380Y-79373809D01*
X120154761Y-79564285D01*
X120107142Y-79659523D01*
X120011904Y-79754761D01*
X119869047Y-79802380D01*
X119630952Y-79802380D01*
X121392857Y-78802380D02*
X121392857Y-79611904D01*
X121440476Y-79707142D01*
X121488095Y-79754761D01*
X121583333Y-79802380D01*
X121773809Y-79802380D01*
X121869047Y-79754761D01*
X121916666Y-79707142D01*
X121964285Y-79611904D01*
X121964285Y-78802380D01*
X122392857Y-79754761D02*
X122535714Y-79802380D01*
X122773809Y-79802380D01*
X122869047Y-79754761D01*
X122916666Y-79707142D01*
X122964285Y-79611904D01*
X122964285Y-79516666D01*
X122916666Y-79421428D01*
X122869047Y-79373809D01*
X122773809Y-79326190D01*
X122583333Y-79278571D01*
X122488095Y-79230952D01*
X122440476Y-79183333D01*
X122392857Y-79088095D01*
X122392857Y-78992857D01*
X122440476Y-78897619D01*
X122488095Y-78850000D01*
X122583333Y-78802380D01*
X122821428Y-78802380D01*
X122964285Y-78850000D01*
X123726190Y-79278571D02*
X123869047Y-79326190D01*
X123916666Y-79373809D01*
X123964285Y-79469047D01*
X123964285Y-79611904D01*
X123916666Y-79707142D01*
X123869047Y-79754761D01*
X123773809Y-79802380D01*
X123392857Y-79802380D01*
X123392857Y-78802380D01*
X123726190Y-78802380D01*
X123821428Y-78850000D01*
X123869047Y-78897619D01*
X123916666Y-78992857D01*
X123916666Y-79088095D01*
X123869047Y-79183333D01*
X123821428Y-79230952D01*
X123726190Y-79278571D01*
X123392857Y-79278571D01*
X118488095Y-76177380D02*
X118011904Y-76177380D01*
X117964285Y-76653571D01*
X118011904Y-76605952D01*
X118107142Y-76558333D01*
X118345238Y-76558333D01*
X118440476Y-76605952D01*
X118488095Y-76653571D01*
X118535714Y-76748809D01*
X118535714Y-76986904D01*
X118488095Y-77082142D01*
X118440476Y-77129761D01*
X118345238Y-77177380D01*
X118107142Y-77177380D01*
X118011904Y-77129761D01*
X117964285Y-77082142D01*
X118964285Y-76796428D02*
X119726190Y-76796428D01*
X119345238Y-77177380D02*
X119345238Y-76415476D01*
X120964285Y-76177380D02*
X120964285Y-76986904D01*
X121011904Y-77082142D01*
X121059523Y-77129761D01*
X121154761Y-77177380D01*
X121345238Y-77177380D01*
X121440476Y-77129761D01*
X121488095Y-77082142D01*
X121535714Y-76986904D01*
X121535714Y-76177380D01*
X121964285Y-77129761D02*
X122107142Y-77177380D01*
X122345238Y-77177380D01*
X122440476Y-77129761D01*
X122488095Y-77082142D01*
X122535714Y-76986904D01*
X122535714Y-76891666D01*
X122488095Y-76796428D01*
X122440476Y-76748809D01*
X122345238Y-76701190D01*
X122154761Y-76653571D01*
X122059523Y-76605952D01*
X122011904Y-76558333D01*
X121964285Y-76463095D01*
X121964285Y-76367857D01*
X122011904Y-76272619D01*
X122059523Y-76225000D01*
X122154761Y-76177380D01*
X122392857Y-76177380D01*
X122535714Y-76225000D01*
X123297619Y-76653571D02*
X123440476Y-76701190D01*
X123488095Y-76748809D01*
X123535714Y-76844047D01*
X123535714Y-76986904D01*
X123488095Y-77082142D01*
X123440476Y-77129761D01*
X123345238Y-77177380D01*
X122964285Y-77177380D01*
X122964285Y-76177380D01*
X123297619Y-76177380D01*
X123392857Y-76225000D01*
X123440476Y-76272619D01*
X123488095Y-76367857D01*
X123488095Y-76463095D01*
X123440476Y-76558333D01*
X123392857Y-76605952D01*
X123297619Y-76653571D01*
X122964285Y-76653571D01*
X58208333Y-77302380D02*
X58827380Y-77302380D01*
X58494047Y-77683333D01*
X58636904Y-77683333D01*
X58732142Y-77730952D01*
X58779761Y-77778571D01*
X58827380Y-77873809D01*
X58827380Y-78111904D01*
X58779761Y-78207142D01*
X58732142Y-78254761D01*
X58636904Y-78302380D01*
X58351190Y-78302380D01*
X58255952Y-78254761D01*
X58208333Y-78207142D01*
X59017857Y-78397619D02*
X59779761Y-78397619D01*
X59875000Y-77302380D02*
X60208333Y-78302380D01*
X60541666Y-77302380D01*
X61446428Y-78207142D02*
X61398809Y-78254761D01*
X61255952Y-78302380D01*
X61160714Y-78302380D01*
X61017857Y-78254761D01*
X60922619Y-78159523D01*
X60875000Y-78064285D01*
X60827380Y-77873809D01*
X60827380Y-77730952D01*
X60875000Y-77540476D01*
X60922619Y-77445238D01*
X61017857Y-77350000D01*
X61160714Y-77302380D01*
X61255952Y-77302380D01*
X61398809Y-77350000D01*
X61446428Y-77397619D01*
X61875000Y-78302380D02*
X61875000Y-77302380D01*
X61875000Y-77778571D02*
X62446428Y-77778571D01*
X62446428Y-78302380D02*
X62446428Y-77302380D01*
X58880952Y-72927380D02*
X58404761Y-72927380D01*
X58357142Y-73403571D01*
X58404761Y-73355952D01*
X58500000Y-73308333D01*
X58738095Y-73308333D01*
X58833333Y-73355952D01*
X58880952Y-73403571D01*
X58928571Y-73498809D01*
X58928571Y-73736904D01*
X58880952Y-73832142D01*
X58833333Y-73879761D01*
X58738095Y-73927380D01*
X58500000Y-73927380D01*
X58404761Y-73879761D01*
X58357142Y-73832142D01*
X59119047Y-74022619D02*
X59880952Y-74022619D01*
X60071428Y-73879761D02*
X60214285Y-73927380D01*
X60452380Y-73927380D01*
X60547619Y-73879761D01*
X60595238Y-73832142D01*
X60642857Y-73736904D01*
X60642857Y-73641666D01*
X60595238Y-73546428D01*
X60547619Y-73498809D01*
X60452380Y-73451190D01*
X60261904Y-73403571D01*
X60166666Y-73355952D01*
X60119047Y-73308333D01*
X60071428Y-73213095D01*
X60071428Y-73117857D01*
X60119047Y-73022619D01*
X60166666Y-72975000D01*
X60261904Y-72927380D01*
X60500000Y-72927380D01*
X60642857Y-72975000D01*
X60976190Y-72927380D02*
X61214285Y-73927380D01*
X61404761Y-73213095D01*
X61595238Y-73927380D01*
X61833333Y-72927380D01*
X62166666Y-73641666D02*
X62642857Y-73641666D01*
X62071428Y-73927380D02*
X62404761Y-72927380D01*
X62738095Y-73927380D01*
X58279761Y-80622619D02*
X58327380Y-80575000D01*
X58422619Y-80527380D01*
X58660714Y-80527380D01*
X58755952Y-80575000D01*
X58803571Y-80622619D01*
X58851190Y-80717857D01*
X58851190Y-80813095D01*
X58803571Y-80955952D01*
X58232142Y-81527380D01*
X58851190Y-81527380D01*
X59041666Y-81622619D02*
X59803571Y-81622619D01*
X59898809Y-80527380D02*
X60232142Y-81527380D01*
X60565476Y-80527380D01*
X61470238Y-81432142D02*
X61422619Y-81479761D01*
X61279761Y-81527380D01*
X61184523Y-81527380D01*
X61041666Y-81479761D01*
X60946428Y-81384523D01*
X60898809Y-81289285D01*
X60851190Y-81098809D01*
X60851190Y-80955952D01*
X60898809Y-80765476D01*
X60946428Y-80670238D01*
X61041666Y-80575000D01*
X61184523Y-80527380D01*
X61279761Y-80527380D01*
X61422619Y-80575000D01*
X61470238Y-80622619D01*
X62470238Y-81432142D02*
X62422619Y-81479761D01*
X62279761Y-81527380D01*
X62184523Y-81527380D01*
X62041666Y-81479761D01*
X61946428Y-81384523D01*
X61898809Y-81289285D01*
X61851190Y-81098809D01*
X61851190Y-80955952D01*
X61898809Y-80765476D01*
X61946428Y-80670238D01*
X62041666Y-80575000D01*
X62184523Y-80527380D01*
X62279761Y-80527380D01*
X62422619Y-80575000D01*
X62470238Y-80622619D01*
X58830952Y-84202380D02*
X58259523Y-84202380D01*
X58545238Y-84202380D02*
X58545238Y-83202380D01*
X58450000Y-83345238D01*
X58354761Y-83440476D01*
X58259523Y-83488095D01*
X59021428Y-84297619D02*
X59783333Y-84297619D01*
X60545238Y-83250000D02*
X60450000Y-83202380D01*
X60307142Y-83202380D01*
X60164285Y-83250000D01*
X60069047Y-83345238D01*
X60021428Y-83440476D01*
X59973809Y-83630952D01*
X59973809Y-83773809D01*
X60021428Y-83964285D01*
X60069047Y-84059523D01*
X60164285Y-84154761D01*
X60307142Y-84202380D01*
X60402380Y-84202380D01*
X60545238Y-84154761D01*
X60592857Y-84107142D01*
X60592857Y-83773809D01*
X60402380Y-83773809D01*
X61021428Y-84202380D02*
X61021428Y-83202380D01*
X61592857Y-84202380D01*
X61592857Y-83202380D01*
X62069047Y-84202380D02*
X62069047Y-83202380D01*
X62307142Y-83202380D01*
X62450000Y-83250000D01*
X62545238Y-83345238D01*
X62592857Y-83440476D01*
X62640476Y-83630952D01*
X62640476Y-83773809D01*
X62592857Y-83964285D01*
X62545238Y-84059523D01*
X62450000Y-84154761D01*
X62307142Y-84202380D01*
X62069047Y-84202380D01*
X58792857Y-75610714D02*
X58792857Y-76277380D01*
X58554761Y-75229761D02*
X58316666Y-75944047D01*
X58935714Y-75944047D01*
X59078571Y-76372619D02*
X59840476Y-76372619D01*
X60030952Y-76229761D02*
X60173809Y-76277380D01*
X60411904Y-76277380D01*
X60507142Y-76229761D01*
X60554761Y-76182142D01*
X60602380Y-76086904D01*
X60602380Y-75991666D01*
X60554761Y-75896428D01*
X60507142Y-75848809D01*
X60411904Y-75801190D01*
X60221428Y-75753571D01*
X60126190Y-75705952D01*
X60078571Y-75658333D01*
X60030952Y-75563095D01*
X60030952Y-75467857D01*
X60078571Y-75372619D01*
X60126190Y-75325000D01*
X60221428Y-75277380D01*
X60459523Y-75277380D01*
X60602380Y-75325000D01*
X60935714Y-75277380D02*
X61173809Y-76277380D01*
X61364285Y-75563095D01*
X61554761Y-76277380D01*
X61792857Y-75277380D01*
X62507142Y-75753571D02*
X62650000Y-75801190D01*
X62697619Y-75848809D01*
X62745238Y-75944047D01*
X62745238Y-76086904D01*
X62697619Y-76182142D01*
X62650000Y-76229761D01*
X62554761Y-76277380D01*
X62173809Y-76277380D01*
X62173809Y-75277380D01*
X62507142Y-75277380D01*
X62602380Y-75325000D01*
X62650000Y-75372619D01*
X62697619Y-75467857D01*
X62697619Y-75563095D01*
X62650000Y-75658333D01*
X62602380Y-75705952D01*
X62507142Y-75753571D01*
X62173809Y-75753571D01*
X63173809Y-75896428D02*
X63935714Y-75896428D01*
X56569047Y-67527380D02*
X57235714Y-67527380D01*
X56807142Y-68527380D01*
X57378571Y-68622619D02*
X58140476Y-68622619D01*
X58330952Y-68479761D02*
X58473809Y-68527380D01*
X58711904Y-68527380D01*
X58807142Y-68479761D01*
X58854761Y-68432142D01*
X58902380Y-68336904D01*
X58902380Y-68241666D01*
X58854761Y-68146428D01*
X58807142Y-68098809D01*
X58711904Y-68051190D01*
X58521428Y-68003571D01*
X58426190Y-67955952D01*
X58378571Y-67908333D01*
X58330952Y-67813095D01*
X58330952Y-67717857D01*
X58378571Y-67622619D01*
X58426190Y-67575000D01*
X58521428Y-67527380D01*
X58759523Y-67527380D01*
X58902380Y-67575000D01*
X59235714Y-67527380D02*
X59473809Y-68527380D01*
X59664285Y-67813095D01*
X59854761Y-68527380D01*
X60092857Y-67527380D01*
X60807142Y-68003571D02*
X60950000Y-68051190D01*
X60997619Y-68098809D01*
X61045238Y-68194047D01*
X61045238Y-68336904D01*
X60997619Y-68432142D01*
X60950000Y-68479761D01*
X60854761Y-68527380D01*
X60473809Y-68527380D01*
X60473809Y-67527380D01*
X60807142Y-67527380D01*
X60902380Y-67575000D01*
X60950000Y-67622619D01*
X60997619Y-67717857D01*
X60997619Y-67813095D01*
X60950000Y-67908333D01*
X60902380Y-67955952D01*
X60807142Y-68003571D01*
X60473809Y-68003571D01*
X61473809Y-68146428D02*
X62235714Y-68146428D01*
X61854761Y-68527380D02*
X61854761Y-67765476D01*
X69063095Y-80302380D02*
X68586904Y-80302380D01*
X68539285Y-80778571D01*
X68586904Y-80730952D01*
X68682142Y-80683333D01*
X68920238Y-80683333D01*
X69015476Y-80730952D01*
X69063095Y-80778571D01*
X69110714Y-80873809D01*
X69110714Y-81111904D01*
X69063095Y-81207142D01*
X69015476Y-81254761D01*
X68920238Y-81302380D01*
X68682142Y-81302380D01*
X68586904Y-81254761D01*
X68539285Y-81207142D01*
X69539285Y-80921428D02*
X70301190Y-80921428D01*
X69920238Y-81302380D02*
X69920238Y-80540476D01*
X71539285Y-80302380D02*
X71539285Y-81111904D01*
X71586904Y-81207142D01*
X71634523Y-81254761D01*
X71729761Y-81302380D01*
X71920238Y-81302380D01*
X72015476Y-81254761D01*
X72063095Y-81207142D01*
X72110714Y-81111904D01*
X72110714Y-80302380D01*
X72539285Y-81254761D02*
X72682142Y-81302380D01*
X72920238Y-81302380D01*
X73015476Y-81254761D01*
X73063095Y-81207142D01*
X73110714Y-81111904D01*
X73110714Y-81016666D01*
X73063095Y-80921428D01*
X73015476Y-80873809D01*
X72920238Y-80826190D01*
X72729761Y-80778571D01*
X72634523Y-80730952D01*
X72586904Y-80683333D01*
X72539285Y-80588095D01*
X72539285Y-80492857D01*
X72586904Y-80397619D01*
X72634523Y-80350000D01*
X72729761Y-80302380D01*
X72967857Y-80302380D01*
X73110714Y-80350000D01*
X73872619Y-80778571D02*
X74015476Y-80826190D01*
X74063095Y-80873809D01*
X74110714Y-80969047D01*
X74110714Y-81111904D01*
X74063095Y-81207142D01*
X74015476Y-81254761D01*
X73920238Y-81302380D01*
X73539285Y-81302380D01*
X73539285Y-80302380D01*
X73872619Y-80302380D01*
X73967857Y-80350000D01*
X74015476Y-80397619D01*
X74063095Y-80492857D01*
X74063095Y-80588095D01*
X74015476Y-80683333D01*
X73967857Y-80730952D01*
X73872619Y-80778571D01*
X73539285Y-80778571D01*
X68957142Y-82925000D02*
X68861904Y-82877380D01*
X68719047Y-82877380D01*
X68576190Y-82925000D01*
X68480952Y-83020238D01*
X68433333Y-83115476D01*
X68385714Y-83305952D01*
X68385714Y-83448809D01*
X68433333Y-83639285D01*
X68480952Y-83734523D01*
X68576190Y-83829761D01*
X68719047Y-83877380D01*
X68814285Y-83877380D01*
X68957142Y-83829761D01*
X69004761Y-83782142D01*
X69004761Y-83448809D01*
X68814285Y-83448809D01*
X69433333Y-83877380D02*
X69433333Y-82877380D01*
X70004761Y-83877380D01*
X70004761Y-82877380D01*
X70480952Y-83877380D02*
X70480952Y-82877380D01*
X70719047Y-82877380D01*
X70861904Y-82925000D01*
X70957142Y-83020238D01*
X71004761Y-83115476D01*
X71052380Y-83305952D01*
X71052380Y-83448809D01*
X71004761Y-83639285D01*
X70957142Y-83734523D01*
X70861904Y-83829761D01*
X70719047Y-83877380D01*
X70480952Y-83877380D01*
X72242857Y-82877380D02*
X72242857Y-83686904D01*
X72290476Y-83782142D01*
X72338095Y-83829761D01*
X72433333Y-83877380D01*
X72623809Y-83877380D01*
X72719047Y-83829761D01*
X72766666Y-83782142D01*
X72814285Y-83686904D01*
X72814285Y-82877380D01*
X73242857Y-83829761D02*
X73385714Y-83877380D01*
X73623809Y-83877380D01*
X73719047Y-83829761D01*
X73766666Y-83782142D01*
X73814285Y-83686904D01*
X73814285Y-83591666D01*
X73766666Y-83496428D01*
X73719047Y-83448809D01*
X73623809Y-83401190D01*
X73433333Y-83353571D01*
X73338095Y-83305952D01*
X73290476Y-83258333D01*
X73242857Y-83163095D01*
X73242857Y-83067857D01*
X73290476Y-82972619D01*
X73338095Y-82925000D01*
X73433333Y-82877380D01*
X73671428Y-82877380D01*
X73814285Y-82925000D01*
X74576190Y-83353571D02*
X74719047Y-83401190D01*
X74766666Y-83448809D01*
X74814285Y-83544047D01*
X74814285Y-83686904D01*
X74766666Y-83782142D01*
X74719047Y-83829761D01*
X74623809Y-83877380D01*
X74242857Y-83877380D01*
X74242857Y-82877380D01*
X74576190Y-82877380D01*
X74671428Y-82925000D01*
X74719047Y-82972619D01*
X74766666Y-83067857D01*
X74766666Y-83163095D01*
X74719047Y-83258333D01*
X74671428Y-83305952D01*
X74576190Y-83353571D01*
X74242857Y-83353571D01*
%TO.C,REF\u002A\u002A*%
X113991666Y-82132380D02*
X113658333Y-81656190D01*
X113420238Y-82132380D02*
X113420238Y-81132380D01*
X113801190Y-81132380D01*
X113896428Y-81180000D01*
X113944047Y-81227619D01*
X113991666Y-81322857D01*
X113991666Y-81465714D01*
X113944047Y-81560952D01*
X113896428Y-81608571D01*
X113801190Y-81656190D01*
X113420238Y-81656190D01*
X114420238Y-81608571D02*
X114753571Y-81608571D01*
X114896428Y-82132380D02*
X114420238Y-82132380D01*
X114420238Y-81132380D01*
X114896428Y-81132380D01*
X115658333Y-81608571D02*
X115325000Y-81608571D01*
X115325000Y-82132380D02*
X115325000Y-81132380D01*
X115801190Y-81132380D01*
X116325000Y-81132380D02*
X116325000Y-81370476D01*
X116086904Y-81275238D02*
X116325000Y-81370476D01*
X116563095Y-81275238D01*
X116182142Y-81560952D02*
X116325000Y-81370476D01*
X116467857Y-81560952D01*
X117086904Y-81132380D02*
X117086904Y-81370476D01*
X116848809Y-81275238D02*
X117086904Y-81370476D01*
X117325000Y-81275238D01*
X116944047Y-81560952D02*
X117086904Y-81370476D01*
X117229761Y-81560952D01*
%TO.C,U1*%
X181632380Y-79211904D02*
X182441904Y-79211904D01*
X182537142Y-79164285D01*
X182584761Y-79116666D01*
X182632380Y-79021428D01*
X182632380Y-78830952D01*
X182584761Y-78735714D01*
X182537142Y-78688095D01*
X182441904Y-78640476D01*
X181632380Y-78640476D01*
X182632380Y-77640476D02*
X182632380Y-78211904D01*
X182632380Y-77926190D02*
X181632380Y-77926190D01*
X181775238Y-78021428D01*
X181870476Y-78116666D01*
X181918095Y-78211904D01*
%TO.C,D2*%
X235991904Y-63412380D02*
X235991904Y-62412380D01*
X236230000Y-62412380D01*
X236372857Y-62460000D01*
X236468095Y-62555238D01*
X236515714Y-62650476D01*
X236563333Y-62840952D01*
X236563333Y-62983809D01*
X236515714Y-63174285D01*
X236468095Y-63269523D01*
X236372857Y-63364761D01*
X236230000Y-63412380D01*
X235991904Y-63412380D01*
X236944285Y-62507619D02*
X236991904Y-62460000D01*
X237087142Y-62412380D01*
X237325238Y-62412380D01*
X237420476Y-62460000D01*
X237468095Y-62507619D01*
X237515714Y-62602857D01*
X237515714Y-62698095D01*
X237468095Y-62840952D01*
X236896666Y-63412380D01*
X237515714Y-63412380D01*
X233271428Y-51900000D02*
X233176190Y-51852380D01*
X233033333Y-51852380D01*
X232890476Y-51900000D01*
X232795238Y-51995238D01*
X232747619Y-52090476D01*
X232700000Y-52280952D01*
X232700000Y-52423809D01*
X232747619Y-52614285D01*
X232795238Y-52709523D01*
X232890476Y-52804761D01*
X233033333Y-52852380D01*
X233128571Y-52852380D01*
X233271428Y-52804761D01*
X233319047Y-52757142D01*
X233319047Y-52423809D01*
X233128571Y-52423809D01*
X233747619Y-52852380D02*
X233747619Y-52185714D01*
X233747619Y-52376190D02*
X233795238Y-52280952D01*
X233842857Y-52233333D01*
X233938095Y-52185714D01*
X234033333Y-52185714D01*
X234747619Y-52804761D02*
X234652380Y-52852380D01*
X234461904Y-52852380D01*
X234366666Y-52804761D01*
X234319047Y-52709523D01*
X234319047Y-52328571D01*
X234366666Y-52233333D01*
X234461904Y-52185714D01*
X234652380Y-52185714D01*
X234747619Y-52233333D01*
X234795238Y-52328571D01*
X234795238Y-52423809D01*
X234319047Y-52519047D01*
X235604761Y-52804761D02*
X235509523Y-52852380D01*
X235319047Y-52852380D01*
X235223809Y-52804761D01*
X235176190Y-52709523D01*
X235176190Y-52328571D01*
X235223809Y-52233333D01*
X235319047Y-52185714D01*
X235509523Y-52185714D01*
X235604761Y-52233333D01*
X235652380Y-52328571D01*
X235652380Y-52423809D01*
X235176190Y-52519047D01*
X236080952Y-52185714D02*
X236080952Y-52852380D01*
X236080952Y-52280952D02*
X236128571Y-52233333D01*
X236223809Y-52185714D01*
X236366666Y-52185714D01*
X236461904Y-52233333D01*
X236509523Y-52328571D01*
X236509523Y-52852380D01*
X237652380Y-51852380D02*
X238271428Y-51852380D01*
X237938095Y-52233333D01*
X238080952Y-52233333D01*
X238176190Y-52280952D01*
X238223809Y-52328571D01*
X238271428Y-52423809D01*
X238271428Y-52661904D01*
X238223809Y-52757142D01*
X238176190Y-52804761D01*
X238080952Y-52852380D01*
X237795238Y-52852380D01*
X237700000Y-52804761D01*
X237652380Y-52757142D01*
X238700000Y-52757142D02*
X238747619Y-52804761D01*
X238700000Y-52852380D01*
X238652380Y-52804761D01*
X238700000Y-52757142D01*
X238700000Y-52852380D01*
X239700000Y-52852380D02*
X239128571Y-52852380D01*
X239414285Y-52852380D02*
X239414285Y-51852380D01*
X239319047Y-51995238D01*
X239223809Y-52090476D01*
X239128571Y-52138095D01*
%TO.C,R15*%
X128802380Y-63642857D02*
X128326190Y-63976190D01*
X128802380Y-64214285D02*
X127802380Y-64214285D01*
X127802380Y-63833333D01*
X127850000Y-63738095D01*
X127897619Y-63690476D01*
X127992857Y-63642857D01*
X128135714Y-63642857D01*
X128230952Y-63690476D01*
X128278571Y-63738095D01*
X128326190Y-63833333D01*
X128326190Y-64214285D01*
X128802380Y-62690476D02*
X128802380Y-63261904D01*
X128802380Y-62976190D02*
X127802380Y-62976190D01*
X127945238Y-63071428D01*
X128040476Y-63166666D01*
X128088095Y-63261904D01*
X127802380Y-61785714D02*
X127802380Y-62261904D01*
X128278571Y-62309523D01*
X128230952Y-62261904D01*
X128183333Y-62166666D01*
X128183333Y-61928571D01*
X128230952Y-61833333D01*
X128278571Y-61785714D01*
X128373809Y-61738095D01*
X128611904Y-61738095D01*
X128707142Y-61785714D01*
X128754761Y-61833333D01*
X128802380Y-61928571D01*
X128802380Y-62166666D01*
X128754761Y-62261904D01*
X128707142Y-62309523D01*
%TO.C,R16*%
X59802380Y-58730357D02*
X59326190Y-59063690D01*
X59802380Y-59301785D02*
X58802380Y-59301785D01*
X58802380Y-58920833D01*
X58850000Y-58825595D01*
X58897619Y-58777976D01*
X58992857Y-58730357D01*
X59135714Y-58730357D01*
X59230952Y-58777976D01*
X59278571Y-58825595D01*
X59326190Y-58920833D01*
X59326190Y-59301785D01*
X59802380Y-57777976D02*
X59802380Y-58349404D01*
X59802380Y-58063690D02*
X58802380Y-58063690D01*
X58945238Y-58158928D01*
X59040476Y-58254166D01*
X59088095Y-58349404D01*
X58802380Y-56920833D02*
X58802380Y-57111309D01*
X58850000Y-57206547D01*
X58897619Y-57254166D01*
X59040476Y-57349404D01*
X59230952Y-57397023D01*
X59611904Y-57397023D01*
X59707142Y-57349404D01*
X59754761Y-57301785D01*
X59802380Y-57206547D01*
X59802380Y-57016071D01*
X59754761Y-56920833D01*
X59707142Y-56873214D01*
X59611904Y-56825595D01*
X59373809Y-56825595D01*
X59278571Y-56873214D01*
X59230952Y-56920833D01*
X59183333Y-57016071D01*
X59183333Y-57206547D01*
X59230952Y-57301785D01*
X59278571Y-57349404D01*
X59373809Y-57397023D01*
%TO.C,D1*%
X232086904Y-82277380D02*
X232086904Y-81277380D01*
X232325000Y-81277380D01*
X232467857Y-81325000D01*
X232563095Y-81420238D01*
X232610714Y-81515476D01*
X232658333Y-81705952D01*
X232658333Y-81848809D01*
X232610714Y-82039285D01*
X232563095Y-82134523D01*
X232467857Y-82229761D01*
X232325000Y-82277380D01*
X232086904Y-82277380D01*
X233610714Y-82277380D02*
X233039285Y-82277380D01*
X233325000Y-82277380D02*
X233325000Y-81277380D01*
X233229761Y-81420238D01*
X233134523Y-81515476D01*
X233039285Y-81563095D01*
X232127380Y-80611600D02*
X232365476Y-80611600D01*
X232270238Y-80849695D02*
X232365476Y-80611600D01*
X232270238Y-80373504D01*
X232555952Y-80754457D02*
X232365476Y-80611600D01*
X232555952Y-80468742D01*
%TO.C,R2*%
X177477380Y-58191666D02*
X177001190Y-58525000D01*
X177477380Y-58763095D02*
X176477380Y-58763095D01*
X176477380Y-58382142D01*
X176525000Y-58286904D01*
X176572619Y-58239285D01*
X176667857Y-58191666D01*
X176810714Y-58191666D01*
X176905952Y-58239285D01*
X176953571Y-58286904D01*
X177001190Y-58382142D01*
X177001190Y-58763095D01*
X176572619Y-57810714D02*
X176525000Y-57763095D01*
X176477380Y-57667857D01*
X176477380Y-57429761D01*
X176525000Y-57334523D01*
X176572619Y-57286904D01*
X176667857Y-57239285D01*
X176763095Y-57239285D01*
X176905952Y-57286904D01*
X177477380Y-57858333D01*
X177477380Y-57239285D01*
%TO.C,D6*%
X89288095Y-76472619D02*
X89288095Y-77472619D01*
X89050000Y-77472619D01*
X88907142Y-77425000D01*
X88811904Y-77329761D01*
X88764285Y-77234523D01*
X88716666Y-77044047D01*
X88716666Y-76901190D01*
X88764285Y-76710714D01*
X88811904Y-76615476D01*
X88907142Y-76520238D01*
X89050000Y-76472619D01*
X89288095Y-76472619D01*
X87859523Y-77472619D02*
X88050000Y-77472619D01*
X88145238Y-77425000D01*
X88192857Y-77377380D01*
X88288095Y-77234523D01*
X88335714Y-77044047D01*
X88335714Y-76663095D01*
X88288095Y-76567857D01*
X88240476Y-76520238D01*
X88145238Y-76472619D01*
X87954761Y-76472619D01*
X87859523Y-76520238D01*
X87811904Y-76567857D01*
X87764285Y-76663095D01*
X87764285Y-76901190D01*
X87811904Y-76996428D01*
X87859523Y-77044047D01*
X87954761Y-77091666D01*
X88145238Y-77091666D01*
X88240476Y-77044047D01*
X88288095Y-76996428D01*
X88335714Y-76901190D01*
X91211600Y-76377380D02*
X91211600Y-76615476D01*
X90973504Y-76520238D02*
X91211600Y-76615476D01*
X91449695Y-76520238D01*
X91068742Y-76805952D02*
X91211600Y-76615476D01*
X91354457Y-76805952D01*
X91211600Y-77472619D02*
X91211600Y-77234523D01*
X91449695Y-77329761D02*
X91211600Y-77234523D01*
X90973504Y-77329761D01*
X91354457Y-77044047D02*
X91211600Y-77234523D01*
X91068742Y-77044047D01*
%TO.C,D7*%
X115991904Y-63412380D02*
X115991904Y-62412380D01*
X116230000Y-62412380D01*
X116372857Y-62460000D01*
X116468095Y-62555238D01*
X116515714Y-62650476D01*
X116563333Y-62840952D01*
X116563333Y-62983809D01*
X116515714Y-63174285D01*
X116468095Y-63269523D01*
X116372857Y-63364761D01*
X116230000Y-63412380D01*
X115991904Y-63412380D01*
X116896666Y-62412380D02*
X117563333Y-62412380D01*
X117134761Y-63412380D01*
X112786904Y-52752380D02*
X112786904Y-51752380D01*
X113167857Y-51752380D01*
X113263095Y-51800000D01*
X113310714Y-51847619D01*
X113358333Y-51942857D01*
X113358333Y-52085714D01*
X113310714Y-52180952D01*
X113263095Y-52228571D01*
X113167857Y-52276190D01*
X112786904Y-52276190D01*
X114215476Y-52085714D02*
X114215476Y-52752380D01*
X113786904Y-52085714D02*
X113786904Y-52609523D01*
X113834523Y-52704761D01*
X113929761Y-52752380D01*
X114072619Y-52752380D01*
X114167857Y-52704761D01*
X114215476Y-52657142D01*
X114691666Y-52752380D02*
X114691666Y-52085714D01*
X114691666Y-52276190D02*
X114739285Y-52180952D01*
X114786904Y-52133333D01*
X114882142Y-52085714D01*
X114977380Y-52085714D01*
X115310714Y-52085714D02*
X115310714Y-53085714D01*
X115310714Y-52133333D02*
X115405952Y-52085714D01*
X115596428Y-52085714D01*
X115691666Y-52133333D01*
X115739285Y-52180952D01*
X115786904Y-52276190D01*
X115786904Y-52561904D01*
X115739285Y-52657142D01*
X115691666Y-52704761D01*
X115596428Y-52752380D01*
X115405952Y-52752380D01*
X115310714Y-52704761D01*
X116358333Y-52752380D02*
X116263095Y-52704761D01*
X116215476Y-52609523D01*
X116215476Y-51752380D01*
X117120238Y-52704761D02*
X117025000Y-52752380D01*
X116834523Y-52752380D01*
X116739285Y-52704761D01*
X116691666Y-52609523D01*
X116691666Y-52228571D01*
X116739285Y-52133333D01*
X116834523Y-52085714D01*
X117025000Y-52085714D01*
X117120238Y-52133333D01*
X117167857Y-52228571D01*
X117167857Y-52323809D01*
X116691666Y-52419047D01*
X118263095Y-51752380D02*
X118882142Y-51752380D01*
X118548809Y-52133333D01*
X118691666Y-52133333D01*
X118786904Y-52180952D01*
X118834523Y-52228571D01*
X118882142Y-52323809D01*
X118882142Y-52561904D01*
X118834523Y-52657142D01*
X118786904Y-52704761D01*
X118691666Y-52752380D01*
X118405952Y-52752380D01*
X118310714Y-52704761D01*
X118263095Y-52657142D01*
X119310714Y-52657142D02*
X119358333Y-52704761D01*
X119310714Y-52752380D01*
X119263095Y-52704761D01*
X119310714Y-52657142D01*
X119310714Y-52752380D01*
X119739285Y-51847619D02*
X119786904Y-51800000D01*
X119882142Y-51752380D01*
X120120238Y-51752380D01*
X120215476Y-51800000D01*
X120263095Y-51847619D01*
X120310714Y-51942857D01*
X120310714Y-52038095D01*
X120263095Y-52180952D01*
X119691666Y-52752380D01*
X120310714Y-52752380D01*
%TO.C,R1*%
X218802380Y-58254166D02*
X218326190Y-58587500D01*
X218802380Y-58825595D02*
X217802380Y-58825595D01*
X217802380Y-58444642D01*
X217850000Y-58349404D01*
X217897619Y-58301785D01*
X217992857Y-58254166D01*
X218135714Y-58254166D01*
X218230952Y-58301785D01*
X218278571Y-58349404D01*
X218326190Y-58444642D01*
X218326190Y-58825595D01*
X218802380Y-57301785D02*
X218802380Y-57873214D01*
X218802380Y-57587500D02*
X217802380Y-57587500D01*
X217945238Y-57682738D01*
X218040476Y-57777976D01*
X218088095Y-57873214D01*
%TO.C,J2*%
X256666666Y-81782380D02*
X256666666Y-82496666D01*
X256619047Y-82639523D01*
X256523809Y-82734761D01*
X256380952Y-82782380D01*
X256285714Y-82782380D01*
X257095238Y-81877619D02*
X257142857Y-81830000D01*
X257238095Y-81782380D01*
X257476190Y-81782380D01*
X257571428Y-81830000D01*
X257619047Y-81877619D01*
X257666666Y-81972857D01*
X257666666Y-82068095D01*
X257619047Y-82210952D01*
X257047619Y-82782380D01*
X257666666Y-82782380D01*
%TO.C,R13*%
X207282142Y-81677380D02*
X206948809Y-81201190D01*
X206710714Y-81677380D02*
X206710714Y-80677380D01*
X207091666Y-80677380D01*
X207186904Y-80725000D01*
X207234523Y-80772619D01*
X207282142Y-80867857D01*
X207282142Y-81010714D01*
X207234523Y-81105952D01*
X207186904Y-81153571D01*
X207091666Y-81201190D01*
X206710714Y-81201190D01*
X208234523Y-81677380D02*
X207663095Y-81677380D01*
X207948809Y-81677380D02*
X207948809Y-80677380D01*
X207853571Y-80820238D01*
X207758333Y-80915476D01*
X207663095Y-80963095D01*
X208567857Y-80677380D02*
X209186904Y-80677380D01*
X208853571Y-81058333D01*
X208996428Y-81058333D01*
X209091666Y-81105952D01*
X209139285Y-81153571D01*
X209186904Y-81248809D01*
X209186904Y-81486904D01*
X209139285Y-81582142D01*
X209091666Y-81629761D01*
X208996428Y-81677380D01*
X208710714Y-81677380D01*
X208615476Y-81629761D01*
X208567857Y-81582142D01*
%TO.C,R17*%
X109882142Y-57327380D02*
X109548809Y-56851190D01*
X109310714Y-57327380D02*
X109310714Y-56327380D01*
X109691666Y-56327380D01*
X109786904Y-56375000D01*
X109834523Y-56422619D01*
X109882142Y-56517857D01*
X109882142Y-56660714D01*
X109834523Y-56755952D01*
X109786904Y-56803571D01*
X109691666Y-56851190D01*
X109310714Y-56851190D01*
X110834523Y-57327380D02*
X110263095Y-57327380D01*
X110548809Y-57327380D02*
X110548809Y-56327380D01*
X110453571Y-56470238D01*
X110358333Y-56565476D01*
X110263095Y-56613095D01*
X111167857Y-56327380D02*
X111834523Y-56327380D01*
X111405952Y-57327380D01*
%TO.C,R25*%
X238407142Y-78202380D02*
X238073809Y-77726190D01*
X237835714Y-78202380D02*
X237835714Y-77202380D01*
X238216666Y-77202380D01*
X238311904Y-77250000D01*
X238359523Y-77297619D01*
X238407142Y-77392857D01*
X238407142Y-77535714D01*
X238359523Y-77630952D01*
X238311904Y-77678571D01*
X238216666Y-77726190D01*
X237835714Y-77726190D01*
X238788095Y-77297619D02*
X238835714Y-77250000D01*
X238930952Y-77202380D01*
X239169047Y-77202380D01*
X239264285Y-77250000D01*
X239311904Y-77297619D01*
X239359523Y-77392857D01*
X239359523Y-77488095D01*
X239311904Y-77630952D01*
X238740476Y-78202380D01*
X239359523Y-78202380D01*
X240264285Y-77202380D02*
X239788095Y-77202380D01*
X239740476Y-77678571D01*
X239788095Y-77630952D01*
X239883333Y-77583333D01*
X240121428Y-77583333D01*
X240216666Y-77630952D01*
X240264285Y-77678571D01*
X240311904Y-77773809D01*
X240311904Y-78011904D01*
X240264285Y-78107142D01*
X240216666Y-78154761D01*
X240121428Y-78202380D01*
X239883333Y-78202380D01*
X239788095Y-78154761D01*
X239740476Y-78107142D01*
%TO.C,R3*%
X140745833Y-61102380D02*
X140412500Y-60626190D01*
X140174404Y-61102380D02*
X140174404Y-60102380D01*
X140555357Y-60102380D01*
X140650595Y-60150000D01*
X140698214Y-60197619D01*
X140745833Y-60292857D01*
X140745833Y-60435714D01*
X140698214Y-60530952D01*
X140650595Y-60578571D01*
X140555357Y-60626190D01*
X140174404Y-60626190D01*
X141079166Y-60102380D02*
X141698214Y-60102380D01*
X141364880Y-60483333D01*
X141507738Y-60483333D01*
X141602976Y-60530952D01*
X141650595Y-60578571D01*
X141698214Y-60673809D01*
X141698214Y-60911904D01*
X141650595Y-61007142D01*
X141602976Y-61054761D01*
X141507738Y-61102380D01*
X141222023Y-61102380D01*
X141126785Y-61054761D01*
X141079166Y-61007142D01*
%TO.C,R21*%
X158102380Y-98642857D02*
X157626190Y-98976190D01*
X158102380Y-99214285D02*
X157102380Y-99214285D01*
X157102380Y-98833333D01*
X157150000Y-98738095D01*
X157197619Y-98690476D01*
X157292857Y-98642857D01*
X157435714Y-98642857D01*
X157530952Y-98690476D01*
X157578571Y-98738095D01*
X157626190Y-98833333D01*
X157626190Y-99214285D01*
X157197619Y-98261904D02*
X157150000Y-98214285D01*
X157102380Y-98119047D01*
X157102380Y-97880952D01*
X157150000Y-97785714D01*
X157197619Y-97738095D01*
X157292857Y-97690476D01*
X157388095Y-97690476D01*
X157530952Y-97738095D01*
X158102380Y-98309523D01*
X158102380Y-97690476D01*
X158102380Y-96738095D02*
X158102380Y-97309523D01*
X158102380Y-97023809D02*
X157102380Y-97023809D01*
X157245238Y-97119047D01*
X157340476Y-97214285D01*
X157388095Y-97309523D01*
%TO.C,R23*%
X76232142Y-97127380D02*
X75898809Y-96651190D01*
X75660714Y-97127380D02*
X75660714Y-96127380D01*
X76041666Y-96127380D01*
X76136904Y-96175000D01*
X76184523Y-96222619D01*
X76232142Y-96317857D01*
X76232142Y-96460714D01*
X76184523Y-96555952D01*
X76136904Y-96603571D01*
X76041666Y-96651190D01*
X75660714Y-96651190D01*
X76613095Y-96222619D02*
X76660714Y-96175000D01*
X76755952Y-96127380D01*
X76994047Y-96127380D01*
X77089285Y-96175000D01*
X77136904Y-96222619D01*
X77184523Y-96317857D01*
X77184523Y-96413095D01*
X77136904Y-96555952D01*
X76565476Y-97127380D01*
X77184523Y-97127380D01*
X77517857Y-96127380D02*
X78136904Y-96127380D01*
X77803571Y-96508333D01*
X77946428Y-96508333D01*
X78041666Y-96555952D01*
X78089285Y-96603571D01*
X78136904Y-96698809D01*
X78136904Y-96936904D01*
X78089285Y-97032142D01*
X78041666Y-97079761D01*
X77946428Y-97127380D01*
X77660714Y-97127380D01*
X77565476Y-97079761D01*
X77517857Y-97032142D01*
%TO.C,R10*%
X76052380Y-87467857D02*
X75576190Y-87801190D01*
X76052380Y-88039285D02*
X75052380Y-88039285D01*
X75052380Y-87658333D01*
X75100000Y-87563095D01*
X75147619Y-87515476D01*
X75242857Y-87467857D01*
X75385714Y-87467857D01*
X75480952Y-87515476D01*
X75528571Y-87563095D01*
X75576190Y-87658333D01*
X75576190Y-88039285D01*
X76052380Y-86515476D02*
X76052380Y-87086904D01*
X76052380Y-86801190D02*
X75052380Y-86801190D01*
X75195238Y-86896428D01*
X75290476Y-86991666D01*
X75338095Y-87086904D01*
X75052380Y-85896428D02*
X75052380Y-85801190D01*
X75100000Y-85705952D01*
X75147619Y-85658333D01*
X75242857Y-85610714D01*
X75433333Y-85563095D01*
X75671428Y-85563095D01*
X75861904Y-85610714D01*
X75957142Y-85658333D01*
X76004761Y-85705952D01*
X76052380Y-85801190D01*
X76052380Y-85896428D01*
X76004761Y-85991666D01*
X75957142Y-86039285D01*
X75861904Y-86086904D01*
X75671428Y-86134523D01*
X75433333Y-86134523D01*
X75242857Y-86086904D01*
X75147619Y-86039285D01*
X75100000Y-85991666D01*
X75052380Y-85896428D01*
%TO.C,SW3*%
X145666666Y-96404761D02*
X145809523Y-96452380D01*
X146047619Y-96452380D01*
X146142857Y-96404761D01*
X146190476Y-96357142D01*
X146238095Y-96261904D01*
X146238095Y-96166666D01*
X146190476Y-96071428D01*
X146142857Y-96023809D01*
X146047619Y-95976190D01*
X145857142Y-95928571D01*
X145761904Y-95880952D01*
X145714285Y-95833333D01*
X145666666Y-95738095D01*
X145666666Y-95642857D01*
X145714285Y-95547619D01*
X145761904Y-95500000D01*
X145857142Y-95452380D01*
X146095238Y-95452380D01*
X146238095Y-95500000D01*
X146571428Y-95452380D02*
X146809523Y-96452380D01*
X147000000Y-95738095D01*
X147190476Y-96452380D01*
X147428571Y-95452380D01*
X147714285Y-95452380D02*
X148333333Y-95452380D01*
X148000000Y-95833333D01*
X148142857Y-95833333D01*
X148238095Y-95880952D01*
X148285714Y-95928571D01*
X148333333Y-96023809D01*
X148333333Y-96261904D01*
X148285714Y-96357142D01*
X148238095Y-96404761D01*
X148142857Y-96452380D01*
X147857142Y-96452380D01*
X147761904Y-96404761D01*
X147714285Y-96357142D01*
%TO.C,D8*%
X76991904Y-63412380D02*
X76991904Y-62412380D01*
X77230000Y-62412380D01*
X77372857Y-62460000D01*
X77468095Y-62555238D01*
X77515714Y-62650476D01*
X77563333Y-62840952D01*
X77563333Y-62983809D01*
X77515714Y-63174285D01*
X77468095Y-63269523D01*
X77372857Y-63364761D01*
X77230000Y-63412380D01*
X76991904Y-63412380D01*
X78134761Y-62840952D02*
X78039523Y-62793333D01*
X77991904Y-62745714D01*
X77944285Y-62650476D01*
X77944285Y-62602857D01*
X77991904Y-62507619D01*
X78039523Y-62460000D01*
X78134761Y-62412380D01*
X78325238Y-62412380D01*
X78420476Y-62460000D01*
X78468095Y-62507619D01*
X78515714Y-62602857D01*
X78515714Y-62650476D01*
X78468095Y-62745714D01*
X78420476Y-62793333D01*
X78325238Y-62840952D01*
X78134761Y-62840952D01*
X78039523Y-62888571D01*
X77991904Y-62936190D01*
X77944285Y-63031428D01*
X77944285Y-63221904D01*
X77991904Y-63317142D01*
X78039523Y-63364761D01*
X78134761Y-63412380D01*
X78325238Y-63412380D01*
X78420476Y-63364761D01*
X78468095Y-63317142D01*
X78515714Y-63221904D01*
X78515714Y-63031428D01*
X78468095Y-62936190D01*
X78420476Y-62888571D01*
X78325238Y-62840952D01*
X75107142Y-52053571D02*
X75250000Y-52101190D01*
X75297619Y-52148809D01*
X75345238Y-52244047D01*
X75345238Y-52386904D01*
X75297619Y-52482142D01*
X75250000Y-52529761D01*
X75154761Y-52577380D01*
X74773809Y-52577380D01*
X74773809Y-51577380D01*
X75107142Y-51577380D01*
X75202380Y-51625000D01*
X75250000Y-51672619D01*
X75297619Y-51767857D01*
X75297619Y-51863095D01*
X75250000Y-51958333D01*
X75202380Y-52005952D01*
X75107142Y-52053571D01*
X74773809Y-52053571D01*
X75916666Y-52577380D02*
X75821428Y-52529761D01*
X75773809Y-52434523D01*
X75773809Y-51577380D01*
X76726190Y-51910714D02*
X76726190Y-52577380D01*
X76297619Y-51910714D02*
X76297619Y-52434523D01*
X76345238Y-52529761D01*
X76440476Y-52577380D01*
X76583333Y-52577380D01*
X76678571Y-52529761D01*
X76726190Y-52482142D01*
X77583333Y-52529761D02*
X77488095Y-52577380D01*
X77297619Y-52577380D01*
X77202380Y-52529761D01*
X77154761Y-52434523D01*
X77154761Y-52053571D01*
X77202380Y-51958333D01*
X77297619Y-51910714D01*
X77488095Y-51910714D01*
X77583333Y-51958333D01*
X77630952Y-52053571D01*
X77630952Y-52148809D01*
X77154761Y-52244047D01*
X78773809Y-51672619D02*
X78821428Y-51625000D01*
X78916666Y-51577380D01*
X79154761Y-51577380D01*
X79250000Y-51625000D01*
X79297619Y-51672619D01*
X79345238Y-51767857D01*
X79345238Y-51863095D01*
X79297619Y-52005952D01*
X78726190Y-52577380D01*
X79345238Y-52577380D01*
X79773809Y-52482142D02*
X79821428Y-52529761D01*
X79773809Y-52577380D01*
X79726190Y-52529761D01*
X79773809Y-52482142D01*
X79773809Y-52577380D01*
X80773809Y-52577380D02*
X80202380Y-52577380D01*
X80488095Y-52577380D02*
X80488095Y-51577380D01*
X80392857Y-51720238D01*
X80297619Y-51815476D01*
X80202380Y-51863095D01*
%TO.C,R9*%
X97095833Y-81302380D02*
X96762500Y-80826190D01*
X96524404Y-81302380D02*
X96524404Y-80302380D01*
X96905357Y-80302380D01*
X97000595Y-80350000D01*
X97048214Y-80397619D01*
X97095833Y-80492857D01*
X97095833Y-80635714D01*
X97048214Y-80730952D01*
X97000595Y-80778571D01*
X96905357Y-80826190D01*
X96524404Y-80826190D01*
X97572023Y-81302380D02*
X97762500Y-81302380D01*
X97857738Y-81254761D01*
X97905357Y-81207142D01*
X98000595Y-81064285D01*
X98048214Y-80873809D01*
X98048214Y-80492857D01*
X98000595Y-80397619D01*
X97952976Y-80350000D01*
X97857738Y-80302380D01*
X97667261Y-80302380D01*
X97572023Y-80350000D01*
X97524404Y-80397619D01*
X97476785Y-80492857D01*
X97476785Y-80730952D01*
X97524404Y-80826190D01*
X97572023Y-80873809D01*
X97667261Y-80921428D01*
X97857738Y-80921428D01*
X97952976Y-80873809D01*
X98000595Y-80826190D01*
X98048214Y-80730952D01*
%TO.C,SW1*%
X225666666Y-96404761D02*
X225809523Y-96452380D01*
X226047619Y-96452380D01*
X226142857Y-96404761D01*
X226190476Y-96357142D01*
X226238095Y-96261904D01*
X226238095Y-96166666D01*
X226190476Y-96071428D01*
X226142857Y-96023809D01*
X226047619Y-95976190D01*
X225857142Y-95928571D01*
X225761904Y-95880952D01*
X225714285Y-95833333D01*
X225666666Y-95738095D01*
X225666666Y-95642857D01*
X225714285Y-95547619D01*
X225761904Y-95500000D01*
X225857142Y-95452380D01*
X226095238Y-95452380D01*
X226238095Y-95500000D01*
X226571428Y-95452380D02*
X226809523Y-96452380D01*
X227000000Y-95738095D01*
X227190476Y-96452380D01*
X227428571Y-95452380D01*
X228333333Y-96452380D02*
X227761904Y-96452380D01*
X228047619Y-96452380D02*
X228047619Y-95452380D01*
X227952380Y-95595238D01*
X227857142Y-95690476D01*
X227761904Y-95738095D01*
%TO.C,SW2*%
X185666666Y-96404761D02*
X185809523Y-96452380D01*
X186047619Y-96452380D01*
X186142857Y-96404761D01*
X186190476Y-96357142D01*
X186238095Y-96261904D01*
X186238095Y-96166666D01*
X186190476Y-96071428D01*
X186142857Y-96023809D01*
X186047619Y-95976190D01*
X185857142Y-95928571D01*
X185761904Y-95880952D01*
X185714285Y-95833333D01*
X185666666Y-95738095D01*
X185666666Y-95642857D01*
X185714285Y-95547619D01*
X185761904Y-95500000D01*
X185857142Y-95452380D01*
X186095238Y-95452380D01*
X186238095Y-95500000D01*
X186571428Y-95452380D02*
X186809523Y-96452380D01*
X187000000Y-95738095D01*
X187190476Y-96452380D01*
X187428571Y-95452380D01*
X187761904Y-95547619D02*
X187809523Y-95500000D01*
X187904761Y-95452380D01*
X188142857Y-95452380D01*
X188238095Y-95500000D01*
X188285714Y-95547619D01*
X188333333Y-95642857D01*
X188333333Y-95738095D01*
X188285714Y-95880952D01*
X187714285Y-96452380D01*
X188333333Y-96452380D01*
%TO.C,D4*%
X156991904Y-63412380D02*
X156991904Y-62412380D01*
X157230000Y-62412380D01*
X157372857Y-62460000D01*
X157468095Y-62555238D01*
X157515714Y-62650476D01*
X157563333Y-62840952D01*
X157563333Y-62983809D01*
X157515714Y-63174285D01*
X157468095Y-63269523D01*
X157372857Y-63364761D01*
X157230000Y-63412380D01*
X156991904Y-63412380D01*
X158420476Y-62745714D02*
X158420476Y-63412380D01*
X158182380Y-62364761D02*
X157944285Y-63079047D01*
X158563333Y-63079047D01*
X156157142Y-52677380D02*
X155823809Y-52201190D01*
X155585714Y-52677380D02*
X155585714Y-51677380D01*
X155966666Y-51677380D01*
X156061904Y-51725000D01*
X156109523Y-51772619D01*
X156157142Y-51867857D01*
X156157142Y-52010714D01*
X156109523Y-52105952D01*
X156061904Y-52153571D01*
X155966666Y-52201190D01*
X155585714Y-52201190D01*
X156966666Y-52629761D02*
X156871428Y-52677380D01*
X156680952Y-52677380D01*
X156585714Y-52629761D01*
X156538095Y-52534523D01*
X156538095Y-52153571D01*
X156585714Y-52058333D01*
X156680952Y-52010714D01*
X156871428Y-52010714D01*
X156966666Y-52058333D01*
X157014285Y-52153571D01*
X157014285Y-52248809D01*
X156538095Y-52344047D01*
X157871428Y-52677380D02*
X157871428Y-51677380D01*
X157871428Y-52629761D02*
X157776190Y-52677380D01*
X157585714Y-52677380D01*
X157490476Y-52629761D01*
X157442857Y-52582142D01*
X157395238Y-52486904D01*
X157395238Y-52201190D01*
X157442857Y-52105952D01*
X157490476Y-52058333D01*
X157585714Y-52010714D01*
X157776190Y-52010714D01*
X157871428Y-52058333D01*
X159061904Y-51772619D02*
X159109523Y-51725000D01*
X159204761Y-51677380D01*
X159442857Y-51677380D01*
X159538095Y-51725000D01*
X159585714Y-51772619D01*
X159633333Y-51867857D01*
X159633333Y-51963095D01*
X159585714Y-52105952D01*
X159014285Y-52677380D01*
X159633333Y-52677380D01*
X160061904Y-52582142D02*
X160109523Y-52629761D01*
X160061904Y-52677380D01*
X160014285Y-52629761D01*
X160061904Y-52582142D01*
X160061904Y-52677380D01*
X161061904Y-52677380D02*
X160490476Y-52677380D01*
X160776190Y-52677380D02*
X160776190Y-51677380D01*
X160680952Y-51820238D01*
X160585714Y-51915476D01*
X160490476Y-51963095D01*
%TO.C,R7*%
X149833333Y-61102380D02*
X149500000Y-60626190D01*
X149261904Y-61102380D02*
X149261904Y-60102380D01*
X149642857Y-60102380D01*
X149738095Y-60150000D01*
X149785714Y-60197619D01*
X149833333Y-60292857D01*
X149833333Y-60435714D01*
X149785714Y-60530952D01*
X149738095Y-60578571D01*
X149642857Y-60626190D01*
X149261904Y-60626190D01*
X150166666Y-60102380D02*
X150833333Y-60102380D01*
X150404761Y-61102380D01*
%TO.C,D3*%
X196531904Y-63412380D02*
X196531904Y-62412380D01*
X196770000Y-62412380D01*
X196912857Y-62460000D01*
X197008095Y-62555238D01*
X197055714Y-62650476D01*
X197103333Y-62840952D01*
X197103333Y-62983809D01*
X197055714Y-63174285D01*
X197008095Y-63269523D01*
X196912857Y-63364761D01*
X196770000Y-63412380D01*
X196531904Y-63412380D01*
X197436666Y-62412380D02*
X198055714Y-62412380D01*
X197722380Y-62793333D01*
X197865238Y-62793333D01*
X197960476Y-62840952D01*
X198008095Y-62888571D01*
X198055714Y-62983809D01*
X198055714Y-63221904D01*
X198008095Y-63317142D01*
X197960476Y-63364761D01*
X197865238Y-63412380D01*
X197579523Y-63412380D01*
X197484285Y-63364761D01*
X197436666Y-63317142D01*
X193588095Y-51677380D02*
X193778571Y-51677380D01*
X193873809Y-51725000D01*
X193969047Y-51820238D01*
X194016666Y-52010714D01*
X194016666Y-52344047D01*
X193969047Y-52534523D01*
X193873809Y-52629761D01*
X193778571Y-52677380D01*
X193588095Y-52677380D01*
X193492857Y-52629761D01*
X193397619Y-52534523D01*
X193350000Y-52344047D01*
X193350000Y-52010714D01*
X193397619Y-51820238D01*
X193492857Y-51725000D01*
X193588095Y-51677380D01*
X194445238Y-52677380D02*
X194445238Y-52010714D01*
X194445238Y-52201190D02*
X194492857Y-52105952D01*
X194540476Y-52058333D01*
X194635714Y-52010714D01*
X194730952Y-52010714D01*
X195492857Y-52677380D02*
X195492857Y-52153571D01*
X195445238Y-52058333D01*
X195350000Y-52010714D01*
X195159523Y-52010714D01*
X195064285Y-52058333D01*
X195492857Y-52629761D02*
X195397619Y-52677380D01*
X195159523Y-52677380D01*
X195064285Y-52629761D01*
X195016666Y-52534523D01*
X195016666Y-52439285D01*
X195064285Y-52344047D01*
X195159523Y-52296428D01*
X195397619Y-52296428D01*
X195492857Y-52248809D01*
X195969047Y-52010714D02*
X195969047Y-52677380D01*
X195969047Y-52105952D02*
X196016666Y-52058333D01*
X196111904Y-52010714D01*
X196254761Y-52010714D01*
X196350000Y-52058333D01*
X196397619Y-52153571D01*
X196397619Y-52677380D01*
X197302380Y-52010714D02*
X197302380Y-52820238D01*
X197254761Y-52915476D01*
X197207142Y-52963095D01*
X197111904Y-53010714D01*
X196969047Y-53010714D01*
X196873809Y-52963095D01*
X197302380Y-52629761D02*
X197207142Y-52677380D01*
X197016666Y-52677380D01*
X196921428Y-52629761D01*
X196873809Y-52582142D01*
X196826190Y-52486904D01*
X196826190Y-52201190D01*
X196873809Y-52105952D01*
X196921428Y-52058333D01*
X197016666Y-52010714D01*
X197207142Y-52010714D01*
X197302380Y-52058333D01*
X198159523Y-52629761D02*
X198064285Y-52677380D01*
X197873809Y-52677380D01*
X197778571Y-52629761D01*
X197730952Y-52534523D01*
X197730952Y-52153571D01*
X197778571Y-52058333D01*
X197873809Y-52010714D01*
X198064285Y-52010714D01*
X198159523Y-52058333D01*
X198207142Y-52153571D01*
X198207142Y-52248809D01*
X197730952Y-52344047D01*
X199350000Y-51772619D02*
X199397619Y-51725000D01*
X199492857Y-51677380D01*
X199730952Y-51677380D01*
X199826190Y-51725000D01*
X199873809Y-51772619D01*
X199921428Y-51867857D01*
X199921428Y-51963095D01*
X199873809Y-52105952D01*
X199302380Y-52677380D01*
X199921428Y-52677380D01*
X200350000Y-52582142D02*
X200397619Y-52629761D01*
X200350000Y-52677380D01*
X200302380Y-52629761D01*
X200350000Y-52582142D01*
X200350000Y-52677380D01*
X201350000Y-52677380D02*
X200778571Y-52677380D01*
X201064285Y-52677380D02*
X201064285Y-51677380D01*
X200969047Y-51820238D01*
X200873809Y-51915476D01*
X200778571Y-51963095D01*
%TO.C,R8*%
X97008333Y-75727380D02*
X96675000Y-75251190D01*
X96436904Y-75727380D02*
X96436904Y-74727380D01*
X96817857Y-74727380D01*
X96913095Y-74775000D01*
X96960714Y-74822619D01*
X97008333Y-74917857D01*
X97008333Y-75060714D01*
X96960714Y-75155952D01*
X96913095Y-75203571D01*
X96817857Y-75251190D01*
X96436904Y-75251190D01*
X97579761Y-75155952D02*
X97484523Y-75108333D01*
X97436904Y-75060714D01*
X97389285Y-74965476D01*
X97389285Y-74917857D01*
X97436904Y-74822619D01*
X97484523Y-74775000D01*
X97579761Y-74727380D01*
X97770238Y-74727380D01*
X97865476Y-74775000D01*
X97913095Y-74822619D01*
X97960714Y-74917857D01*
X97960714Y-74965476D01*
X97913095Y-75060714D01*
X97865476Y-75108333D01*
X97770238Y-75155952D01*
X97579761Y-75155952D01*
X97484523Y-75203571D01*
X97436904Y-75251190D01*
X97389285Y-75346428D01*
X97389285Y-75536904D01*
X97436904Y-75632142D01*
X97484523Y-75679761D01*
X97579761Y-75727380D01*
X97770238Y-75727380D01*
X97865476Y-75679761D01*
X97913095Y-75632142D01*
X97960714Y-75536904D01*
X97960714Y-75346428D01*
X97913095Y-75251190D01*
X97865476Y-75203571D01*
X97770238Y-75155952D01*
%TO.C,D5*%
X89563095Y-81947619D02*
X89563095Y-82947619D01*
X89325000Y-82947619D01*
X89182142Y-82900000D01*
X89086904Y-82804761D01*
X89039285Y-82709523D01*
X88991666Y-82519047D01*
X88991666Y-82376190D01*
X89039285Y-82185714D01*
X89086904Y-82090476D01*
X89182142Y-81995238D01*
X89325000Y-81947619D01*
X89563095Y-81947619D01*
X88086904Y-82947619D02*
X88563095Y-82947619D01*
X88610714Y-82471428D01*
X88563095Y-82519047D01*
X88467857Y-82566666D01*
X88229761Y-82566666D01*
X88134523Y-82519047D01*
X88086904Y-82471428D01*
X88039285Y-82376190D01*
X88039285Y-82138095D01*
X88086904Y-82042857D01*
X88134523Y-81995238D01*
X88229761Y-81947619D01*
X88467857Y-81947619D01*
X88563095Y-81995238D01*
X88610714Y-82042857D01*
X91486600Y-82947619D02*
X91486600Y-82709523D01*
X91724695Y-82804761D02*
X91486600Y-82709523D01*
X91248504Y-82804761D01*
X91629457Y-82519047D02*
X91486600Y-82709523D01*
X91343742Y-82519047D01*
X91486600Y-81852380D02*
X91486600Y-82090476D01*
X91248504Y-81995238D02*
X91486600Y-82090476D01*
X91724695Y-81995238D01*
X91343742Y-82280952D02*
X91486600Y-82090476D01*
X91629457Y-82280952D01*
%TO.C,R5*%
X228833333Y-61102380D02*
X228500000Y-60626190D01*
X228261904Y-61102380D02*
X228261904Y-60102380D01*
X228642857Y-60102380D01*
X228738095Y-60150000D01*
X228785714Y-60197619D01*
X228833333Y-60292857D01*
X228833333Y-60435714D01*
X228785714Y-60530952D01*
X228738095Y-60578571D01*
X228642857Y-60626190D01*
X228261904Y-60626190D01*
X229738095Y-60102380D02*
X229261904Y-60102380D01*
X229214285Y-60578571D01*
X229261904Y-60530952D01*
X229357142Y-60483333D01*
X229595238Y-60483333D01*
X229690476Y-60530952D01*
X229738095Y-60578571D01*
X229785714Y-60673809D01*
X229785714Y-60911904D01*
X229738095Y-61007142D01*
X229690476Y-61054761D01*
X229595238Y-61102380D01*
X229357142Y-61102380D01*
X229261904Y-61054761D01*
X229214285Y-61007142D01*
%TO.C,R4*%
X239083333Y-82627380D02*
X238750000Y-82151190D01*
X238511904Y-82627380D02*
X238511904Y-81627380D01*
X238892857Y-81627380D01*
X238988095Y-81675000D01*
X239035714Y-81722619D01*
X239083333Y-81817857D01*
X239083333Y-81960714D01*
X239035714Y-82055952D01*
X238988095Y-82103571D01*
X238892857Y-82151190D01*
X238511904Y-82151190D01*
X239940476Y-81960714D02*
X239940476Y-82627380D01*
X239702380Y-81579761D02*
X239464285Y-82294047D01*
X240083333Y-82294047D01*
%TO.C,Q1*%
X221904761Y-77547619D02*
X221809523Y-77500000D01*
X221714285Y-77404761D01*
X221571428Y-77261904D01*
X221476190Y-77214285D01*
X221380952Y-77214285D01*
X221428571Y-77452380D02*
X221333333Y-77404761D01*
X221238095Y-77309523D01*
X221190476Y-77119047D01*
X221190476Y-76785714D01*
X221238095Y-76595238D01*
X221333333Y-76500000D01*
X221428571Y-76452380D01*
X221619047Y-76452380D01*
X221714285Y-76500000D01*
X221809523Y-76595238D01*
X221857142Y-76785714D01*
X221857142Y-77119047D01*
X221809523Y-77309523D01*
X221714285Y-77404761D01*
X221619047Y-77452380D01*
X221428571Y-77452380D01*
X222809523Y-77452380D02*
X222238095Y-77452380D01*
X222523809Y-77452380D02*
X222523809Y-76452380D01*
X222428571Y-76595238D01*
X222333333Y-76690476D01*
X222238095Y-76738095D01*
X227105400Y-81891019D02*
X227105400Y-81652923D01*
X227343495Y-81748161D02*
X227105400Y-81652923D01*
X226867304Y-81748161D01*
X227248257Y-81462447D02*
X227105400Y-81652923D01*
X226962542Y-81462447D01*
%TO.C,R19*%
X236102380Y-98642857D02*
X235626190Y-98976190D01*
X236102380Y-99214285D02*
X235102380Y-99214285D01*
X235102380Y-98833333D01*
X235150000Y-98738095D01*
X235197619Y-98690476D01*
X235292857Y-98642857D01*
X235435714Y-98642857D01*
X235530952Y-98690476D01*
X235578571Y-98738095D01*
X235626190Y-98833333D01*
X235626190Y-99214285D01*
X236102380Y-97690476D02*
X236102380Y-98261904D01*
X236102380Y-97976190D02*
X235102380Y-97976190D01*
X235245238Y-98071428D01*
X235340476Y-98166666D01*
X235388095Y-98261904D01*
X236102380Y-97214285D02*
X236102380Y-97023809D01*
X236054761Y-96928571D01*
X236007142Y-96880952D01*
X235864285Y-96785714D01*
X235673809Y-96738095D01*
X235292857Y-96738095D01*
X235197619Y-96785714D01*
X235150000Y-96833333D01*
X235102380Y-96928571D01*
X235102380Y-97119047D01*
X235150000Y-97214285D01*
X235197619Y-97261904D01*
X235292857Y-97309523D01*
X235530952Y-97309523D01*
X235626190Y-97261904D01*
X235673809Y-97214285D01*
X235721428Y-97119047D01*
X235721428Y-96928571D01*
X235673809Y-96833333D01*
X235626190Y-96785714D01*
X235530952Y-96738095D01*
%TO.C,R11*%
X76027380Y-74930357D02*
X75551190Y-75263690D01*
X76027380Y-75501785D02*
X75027380Y-75501785D01*
X75027380Y-75120833D01*
X75075000Y-75025595D01*
X75122619Y-74977976D01*
X75217857Y-74930357D01*
X75360714Y-74930357D01*
X75455952Y-74977976D01*
X75503571Y-75025595D01*
X75551190Y-75120833D01*
X75551190Y-75501785D01*
X76027380Y-73977976D02*
X76027380Y-74549404D01*
X76027380Y-74263690D02*
X75027380Y-74263690D01*
X75170238Y-74358928D01*
X75265476Y-74454166D01*
X75313095Y-74549404D01*
X76027380Y-73025595D02*
X76027380Y-73597023D01*
X76027380Y-73311309D02*
X75027380Y-73311309D01*
X75170238Y-73406547D01*
X75265476Y-73501785D01*
X75313095Y-73597023D01*
%TO.C,R20*%
X199102380Y-98642857D02*
X198626190Y-98976190D01*
X199102380Y-99214285D02*
X198102380Y-99214285D01*
X198102380Y-98833333D01*
X198150000Y-98738095D01*
X198197619Y-98690476D01*
X198292857Y-98642857D01*
X198435714Y-98642857D01*
X198530952Y-98690476D01*
X198578571Y-98738095D01*
X198626190Y-98833333D01*
X198626190Y-99214285D01*
X198197619Y-98261904D02*
X198150000Y-98214285D01*
X198102380Y-98119047D01*
X198102380Y-97880952D01*
X198150000Y-97785714D01*
X198197619Y-97738095D01*
X198292857Y-97690476D01*
X198388095Y-97690476D01*
X198530952Y-97738095D01*
X199102380Y-98309523D01*
X199102380Y-97690476D01*
X198102380Y-97071428D02*
X198102380Y-96976190D01*
X198150000Y-96880952D01*
X198197619Y-96833333D01*
X198292857Y-96785714D01*
X198483333Y-96738095D01*
X198721428Y-96738095D01*
X198911904Y-96785714D01*
X199007142Y-96833333D01*
X199054761Y-96880952D01*
X199102380Y-96976190D01*
X199102380Y-97071428D01*
X199054761Y-97166666D01*
X199007142Y-97214285D01*
X198911904Y-97261904D01*
X198721428Y-97309523D01*
X198483333Y-97309523D01*
X198292857Y-97261904D01*
X198197619Y-97214285D01*
X198150000Y-97166666D01*
X198102380Y-97071428D01*
%TO.C,R22*%
X118014880Y-98642857D02*
X117538690Y-98976190D01*
X118014880Y-99214285D02*
X117014880Y-99214285D01*
X117014880Y-98833333D01*
X117062500Y-98738095D01*
X117110119Y-98690476D01*
X117205357Y-98642857D01*
X117348214Y-98642857D01*
X117443452Y-98690476D01*
X117491071Y-98738095D01*
X117538690Y-98833333D01*
X117538690Y-99214285D01*
X117110119Y-98261904D02*
X117062500Y-98214285D01*
X117014880Y-98119047D01*
X117014880Y-97880952D01*
X117062500Y-97785714D01*
X117110119Y-97738095D01*
X117205357Y-97690476D01*
X117300595Y-97690476D01*
X117443452Y-97738095D01*
X118014880Y-98309523D01*
X118014880Y-97690476D01*
X117110119Y-97309523D02*
X117062500Y-97261904D01*
X117014880Y-97166666D01*
X117014880Y-96928571D01*
X117062500Y-96833333D01*
X117110119Y-96785714D01*
X117205357Y-96738095D01*
X117300595Y-96738095D01*
X117443452Y-96785714D01*
X118014880Y-97357142D01*
X118014880Y-96738095D01*
%TO.C,R18*%
X69357142Y-57802380D02*
X69023809Y-57326190D01*
X68785714Y-57802380D02*
X68785714Y-56802380D01*
X69166666Y-56802380D01*
X69261904Y-56850000D01*
X69309523Y-56897619D01*
X69357142Y-56992857D01*
X69357142Y-57135714D01*
X69309523Y-57230952D01*
X69261904Y-57278571D01*
X69166666Y-57326190D01*
X68785714Y-57326190D01*
X70309523Y-57802380D02*
X69738095Y-57802380D01*
X70023809Y-57802380D02*
X70023809Y-56802380D01*
X69928571Y-56945238D01*
X69833333Y-57040476D01*
X69738095Y-57088095D01*
X70880952Y-57230952D02*
X70785714Y-57183333D01*
X70738095Y-57135714D01*
X70690476Y-57040476D01*
X70690476Y-56992857D01*
X70738095Y-56897619D01*
X70785714Y-56850000D01*
X70880952Y-56802380D01*
X71071428Y-56802380D01*
X71166666Y-56850000D01*
X71214285Y-56897619D01*
X71261904Y-56992857D01*
X71261904Y-57040476D01*
X71214285Y-57135714D01*
X71166666Y-57183333D01*
X71071428Y-57230952D01*
X70880952Y-57230952D01*
X70785714Y-57278571D01*
X70738095Y-57326190D01*
X70690476Y-57421428D01*
X70690476Y-57611904D01*
X70738095Y-57707142D01*
X70785714Y-57754761D01*
X70880952Y-57802380D01*
X71071428Y-57802380D01*
X71166666Y-57754761D01*
X71214285Y-57707142D01*
X71261904Y-57611904D01*
X71261904Y-57421428D01*
X71214285Y-57326190D01*
X71166666Y-57278571D01*
X71071428Y-57230952D01*
%TO.C,SW4*%
X105666666Y-96404761D02*
X105809523Y-96452380D01*
X106047619Y-96452380D01*
X106142857Y-96404761D01*
X106190476Y-96357142D01*
X106238095Y-96261904D01*
X106238095Y-96166666D01*
X106190476Y-96071428D01*
X106142857Y-96023809D01*
X106047619Y-95976190D01*
X105857142Y-95928571D01*
X105761904Y-95880952D01*
X105714285Y-95833333D01*
X105666666Y-95738095D01*
X105666666Y-95642857D01*
X105714285Y-95547619D01*
X105761904Y-95500000D01*
X105857142Y-95452380D01*
X106095238Y-95452380D01*
X106238095Y-95500000D01*
X106571428Y-95452380D02*
X106809523Y-96452380D01*
X107000000Y-95738095D01*
X107190476Y-96452380D01*
X107428571Y-95452380D01*
X108238095Y-95785714D02*
X108238095Y-96452380D01*
X108000000Y-95404761D02*
X107761904Y-96119047D01*
X108380952Y-96119047D01*
%TO.C,SW5*%
X65666666Y-96404761D02*
X65809523Y-96452380D01*
X66047619Y-96452380D01*
X66142857Y-96404761D01*
X66190476Y-96357142D01*
X66238095Y-96261904D01*
X66238095Y-96166666D01*
X66190476Y-96071428D01*
X66142857Y-96023809D01*
X66047619Y-95976190D01*
X65857142Y-95928571D01*
X65761904Y-95880952D01*
X65714285Y-95833333D01*
X65666666Y-95738095D01*
X65666666Y-95642857D01*
X65714285Y-95547619D01*
X65761904Y-95500000D01*
X65857142Y-95452380D01*
X66095238Y-95452380D01*
X66238095Y-95500000D01*
X66571428Y-95452380D02*
X66809523Y-96452380D01*
X67000000Y-95738095D01*
X67190476Y-96452380D01*
X67428571Y-95452380D01*
X68285714Y-95452380D02*
X67809523Y-95452380D01*
X67761904Y-95928571D01*
X67809523Y-95880952D01*
X67904761Y-95833333D01*
X68142857Y-95833333D01*
X68238095Y-95880952D01*
X68285714Y-95928571D01*
X68333333Y-96023809D01*
X68333333Y-96261904D01*
X68285714Y-96357142D01*
X68238095Y-96404761D01*
X68142857Y-96452380D01*
X67904761Y-96452380D01*
X67809523Y-96404761D01*
X67761904Y-96357142D01*
%TO.C,R6*%
X188808333Y-61502380D02*
X188475000Y-61026190D01*
X188236904Y-61502380D02*
X188236904Y-60502380D01*
X188617857Y-60502380D01*
X188713095Y-60550000D01*
X188760714Y-60597619D01*
X188808333Y-60692857D01*
X188808333Y-60835714D01*
X188760714Y-60930952D01*
X188713095Y-60978571D01*
X188617857Y-61026190D01*
X188236904Y-61026190D01*
X189665476Y-60502380D02*
X189475000Y-60502380D01*
X189379761Y-60550000D01*
X189332142Y-60597619D01*
X189236904Y-60740476D01*
X189189285Y-60930952D01*
X189189285Y-61311904D01*
X189236904Y-61407142D01*
X189284523Y-61454761D01*
X189379761Y-61502380D01*
X189570238Y-61502380D01*
X189665476Y-61454761D01*
X189713095Y-61407142D01*
X189760714Y-61311904D01*
X189760714Y-61073809D01*
X189713095Y-60978571D01*
X189665476Y-60930952D01*
X189570238Y-60883333D01*
X189379761Y-60883333D01*
X189284523Y-60930952D01*
X189236904Y-60978571D01*
X189189285Y-61073809D01*
%TO.C,R12*%
X76052380Y-67642857D02*
X75576190Y-67976190D01*
X76052380Y-68214285D02*
X75052380Y-68214285D01*
X75052380Y-67833333D01*
X75100000Y-67738095D01*
X75147619Y-67690476D01*
X75242857Y-67642857D01*
X75385714Y-67642857D01*
X75480952Y-67690476D01*
X75528571Y-67738095D01*
X75576190Y-67833333D01*
X75576190Y-68214285D01*
X76052380Y-66690476D02*
X76052380Y-67261904D01*
X76052380Y-66976190D02*
X75052380Y-66976190D01*
X75195238Y-67071428D01*
X75290476Y-67166666D01*
X75338095Y-67261904D01*
X75147619Y-66309523D02*
X75100000Y-66261904D01*
X75052380Y-66166666D01*
X75052380Y-65928571D01*
X75100000Y-65833333D01*
X75147619Y-65785714D01*
X75242857Y-65738095D01*
X75338095Y-65738095D01*
X75480952Y-65785714D01*
X76052380Y-66357142D01*
X76052380Y-65738095D01*
%TO.C,R14*%
X201807142Y-79552380D02*
X201473809Y-79076190D01*
X201235714Y-79552380D02*
X201235714Y-78552380D01*
X201616666Y-78552380D01*
X201711904Y-78600000D01*
X201759523Y-78647619D01*
X201807142Y-78742857D01*
X201807142Y-78885714D01*
X201759523Y-78980952D01*
X201711904Y-79028571D01*
X201616666Y-79076190D01*
X201235714Y-79076190D01*
X202759523Y-79552380D02*
X202188095Y-79552380D01*
X202473809Y-79552380D02*
X202473809Y-78552380D01*
X202378571Y-78695238D01*
X202283333Y-78790476D01*
X202188095Y-78838095D01*
X203616666Y-78885714D02*
X203616666Y-79552380D01*
X203378571Y-78504761D02*
X203140476Y-79219047D01*
X203759523Y-79219047D01*
%TO.C,J1*%
X65916666Y-85257380D02*
X65916666Y-85971666D01*
X65869047Y-86114523D01*
X65773809Y-86209761D01*
X65630952Y-86257380D01*
X65535714Y-86257380D01*
X66916666Y-86257380D02*
X66345238Y-86257380D01*
X66630952Y-86257380D02*
X66630952Y-85257380D01*
X66535714Y-85400238D01*
X66440476Y-85495476D01*
X66345238Y-85543095D01*
D11*
%TO.C,REF\u002A\u002A*%
X116655000Y-75480000D02*
X113995000Y-75480000D01*
X116655000Y-78080000D02*
X116655000Y-75480000D01*
X113995000Y-78080000D02*
X113995000Y-75480000D01*
X116655000Y-78080000D02*
X113995000Y-78080000D01*
X116655000Y-79350000D02*
X116655000Y-80680000D01*
X116655000Y-80680000D02*
X115325000Y-80680000D01*
%TO.C,U1*%
X175830000Y-72100000D02*
X178370000Y-72100000D01*
X178370000Y-72100000D02*
X178370000Y-69433000D01*
X175830000Y-69433000D02*
X137603000Y-69433000D01*
X181037000Y-69433000D02*
X178370000Y-69433000D01*
X178370000Y-84800000D02*
X178370000Y-87470000D01*
X178370000Y-84800000D02*
X140270000Y-84800000D01*
X140270000Y-84800000D02*
X140270000Y-87470000D01*
X175830000Y-72100000D02*
X175830000Y-69433000D01*
X175830000Y-72100000D02*
X140270000Y-72100000D01*
X140270000Y-72100000D02*
X140270000Y-69430000D01*
X137603000Y-69433000D02*
X137603000Y-74513000D01*
X137603000Y-87467000D02*
X181037000Y-87467000D01*
X181037000Y-87467000D02*
X181037000Y-69433000D01*
X135063000Y-74513000D02*
X137603000Y-74513000D01*
X137603000Y-82387000D02*
X137603000Y-87467000D01*
X135063000Y-82387000D02*
X137603000Y-82387000D01*
X135063000Y-74513000D02*
X135063000Y-82387000D01*
%TO.C,D2*%
X239290000Y-60545000D02*
X239290000Y-57455000D01*
X233740000Y-58999538D02*
G75*
G03*
X239290000Y-60544830I2990000J-462D01*
G01*
X239290000Y-57455170D02*
G75*
G03*
X233740000Y-59000462I-2560000J-1544830D01*
G01*
X239230000Y-59000000D02*
G75*
G03*
X239230000Y-59000000I-2500000J0D01*
G01*
%TO.C,R15*%
X129265000Y-63227064D02*
X129265000Y-62772936D01*
X130735000Y-63227064D02*
X130735000Y-62772936D01*
%TO.C,R16*%
X61735000Y-58314564D02*
X61735000Y-57860436D01*
X60265000Y-58314564D02*
X60265000Y-57860436D01*
D12*
%TO.C,D1*%
X233477000Y-79502000D02*
X233477000Y-76398000D01*
X231873000Y-76398000D02*
X231873000Y-79502000D01*
D11*
%TO.C,R2*%
X178265000Y-58314564D02*
X178265000Y-57860436D01*
X179735000Y-58314564D02*
X179735000Y-57860436D01*
D12*
%TO.C,D6*%
X90102000Y-76123000D02*
X86998000Y-76123000D01*
X86998000Y-77727000D02*
X90102000Y-77727000D01*
D11*
%TO.C,D7*%
X119290000Y-60545000D02*
X119290000Y-57455000D01*
X119290000Y-57455170D02*
G75*
G03*
X113740000Y-59000462I-2560000J-1544830D01*
G01*
X113740000Y-58999538D02*
G75*
G03*
X119290000Y-60544830I2990000J-462D01*
G01*
X119230000Y-59000000D02*
G75*
G03*
X119230000Y-59000000I-2500000J0D01*
G01*
%TO.C,R1*%
X219265000Y-58314564D02*
X219265000Y-57860436D01*
X220735000Y-58314564D02*
X220735000Y-57860436D01*
%TO.C,J2*%
X258330000Y-78730000D02*
X258330000Y-68510000D01*
X258330000Y-68510000D02*
X255670000Y-68510000D01*
X258330000Y-81330000D02*
X257000000Y-81330000D01*
X258330000Y-80000000D02*
X258330000Y-81330000D01*
X255670000Y-78730000D02*
X255670000Y-68510000D01*
X258330000Y-78730000D02*
X255670000Y-78730000D01*
%TO.C,R13*%
X207860436Y-78265000D02*
X208314564Y-78265000D01*
X207860436Y-79735000D02*
X208314564Y-79735000D01*
%TO.C,R17*%
X108772936Y-59735000D02*
X109227064Y-59735000D01*
X108772936Y-58265000D02*
X109227064Y-58265000D01*
%TO.C,R25*%
X239277064Y-76835000D02*
X238822936Y-76835000D01*
X239277064Y-75365000D02*
X238822936Y-75365000D01*
%TO.C,R3*%
X141139564Y-59735000D02*
X140685436Y-59735000D01*
X141139564Y-58265000D02*
X140685436Y-58265000D01*
%TO.C,R21*%
X156735000Y-97772936D02*
X156735000Y-98227064D01*
X155265000Y-97772936D02*
X155265000Y-98227064D01*
%TO.C,R23*%
X77227064Y-98265000D02*
X76772936Y-98265000D01*
X77227064Y-99735000D02*
X76772936Y-99735000D01*
%TO.C,R10*%
X77960000Y-87139564D02*
X77960000Y-86685436D01*
X76490000Y-87139564D02*
X76490000Y-86685436D01*
%TO.C,SW3*%
X145730000Y-97670000D02*
X143130000Y-97670000D01*
X143130000Y-97670000D02*
X143130000Y-100330000D01*
X145730000Y-100330000D02*
X143130000Y-100330000D01*
X145730000Y-97670000D02*
X145730000Y-100330000D01*
X148330000Y-97670000D02*
X148330000Y-99000000D01*
X147000000Y-97670000D02*
X148330000Y-97670000D01*
%TO.C,D8*%
X80290000Y-60545000D02*
X80290000Y-57455000D01*
X74740000Y-58999538D02*
G75*
G03*
X80290000Y-60544830I2990000J-462D01*
G01*
X80290000Y-57455170D02*
G75*
G03*
X74740000Y-59000462I-2560000J-1544830D01*
G01*
X80230000Y-59000000D02*
G75*
G03*
X80230000Y-59000000I-2500000J0D01*
G01*
%TO.C,R9*%
X97035436Y-83235000D02*
X97489564Y-83235000D01*
X97035436Y-81765000D02*
X97489564Y-81765000D01*
%TO.C,SW1*%
X225730000Y-97670000D02*
X225730000Y-100330000D01*
X227000000Y-97670000D02*
X228330000Y-97670000D01*
X223130000Y-97670000D02*
X223130000Y-100330000D01*
X225730000Y-97670000D02*
X223130000Y-97670000D01*
X225730000Y-100330000D02*
X223130000Y-100330000D01*
X228330000Y-97670000D02*
X228330000Y-99000000D01*
%TO.C,SW2*%
X185730000Y-97670000D02*
X185730000Y-100330000D01*
X187000000Y-97670000D02*
X188330000Y-97670000D01*
X185730000Y-100330000D02*
X183130000Y-100330000D01*
X185730000Y-97670000D02*
X183130000Y-97670000D01*
X183130000Y-97670000D02*
X183130000Y-100330000D01*
X188330000Y-97670000D02*
X188330000Y-99000000D01*
%TO.C,D4*%
X160290000Y-60545000D02*
X160290000Y-57455000D01*
X154740000Y-58999538D02*
G75*
G03*
X160290000Y-60544830I2990000J-462D01*
G01*
X160290000Y-57455170D02*
G75*
G03*
X154740000Y-59000462I-2560000J-1544830D01*
G01*
X160230000Y-59000000D02*
G75*
G03*
X160230000Y-59000000I-2500000J0D01*
G01*
%TO.C,R7*%
X150227064Y-58265000D02*
X149772936Y-58265000D01*
X150227064Y-59735000D02*
X149772936Y-59735000D01*
%TO.C,D3*%
X199830000Y-60545000D02*
X199830000Y-57455000D01*
X194280000Y-58999538D02*
G75*
G03*
X199830000Y-60544830I2990000J-462D01*
G01*
X199830000Y-57455170D02*
G75*
G03*
X194280000Y-59000462I-2560000J-1544830D01*
G01*
X199770000Y-59000000D02*
G75*
G03*
X199770000Y-59000000I-2500000J0D01*
G01*
%TO.C,R8*%
X96947936Y-77660000D02*
X97402064Y-77660000D01*
X96947936Y-76190000D02*
X97402064Y-76190000D01*
D12*
%TO.C,D5*%
X90377000Y-81598000D02*
X87273000Y-81598000D01*
X87273000Y-83202000D02*
X90377000Y-83202000D01*
D11*
%TO.C,R5*%
X229227064Y-59735000D02*
X228772936Y-59735000D01*
X229227064Y-58265000D02*
X228772936Y-58265000D01*
%TO.C,R4*%
X238647936Y-81260000D02*
X239102064Y-81260000D01*
X238647936Y-79790000D02*
X239102064Y-79790000D01*
D12*
%TO.C,Q1*%
X218367800Y-81025900D02*
X225632200Y-81025900D01*
X225632200Y-81025900D02*
X225632200Y-72974100D01*
X225632200Y-72974100D02*
X218367800Y-72974100D01*
X218367800Y-72974100D02*
X218367800Y-81025900D01*
D11*
%TO.C,R19*%
X234735000Y-97772936D02*
X234735000Y-98227064D01*
X233265000Y-97772936D02*
X233265000Y-98227064D01*
%TO.C,R11*%
X76490000Y-74514564D02*
X76490000Y-74060436D01*
X77960000Y-74514564D02*
X77960000Y-74060436D01*
%TO.C,R20*%
X196265000Y-97772936D02*
X196265000Y-98227064D01*
X197735000Y-97772936D02*
X197735000Y-98227064D01*
%TO.C,R22*%
X115177500Y-97772936D02*
X115177500Y-98227064D01*
X116647500Y-97772936D02*
X116647500Y-98227064D01*
%TO.C,R18*%
X69772936Y-59735000D02*
X70227064Y-59735000D01*
X69772936Y-58265000D02*
X70227064Y-58265000D01*
%TO.C,SW4*%
X108330000Y-97670000D02*
X108330000Y-99000000D01*
X105730000Y-97670000D02*
X105730000Y-100330000D01*
X105730000Y-97670000D02*
X103130000Y-97670000D01*
X105730000Y-100330000D02*
X103130000Y-100330000D01*
X103130000Y-97670000D02*
X103130000Y-100330000D01*
X107000000Y-97670000D02*
X108330000Y-97670000D01*
%TO.C,SW5*%
X65730000Y-100330000D02*
X63130000Y-100330000D01*
X68330000Y-97670000D02*
X68330000Y-99000000D01*
X67000000Y-97670000D02*
X68330000Y-97670000D01*
X65730000Y-97670000D02*
X63130000Y-97670000D01*
X65730000Y-97670000D02*
X65730000Y-100330000D01*
X63130000Y-97670000D02*
X63130000Y-100330000D01*
%TO.C,R6*%
X189227064Y-59735000D02*
X188772936Y-59735000D01*
X189227064Y-58265000D02*
X188772936Y-58265000D01*
%TO.C,R12*%
X76515000Y-67227064D02*
X76515000Y-66772936D01*
X77985000Y-67227064D02*
X77985000Y-66772936D01*
%TO.C,R14*%
X200860436Y-76265000D02*
X201314564Y-76265000D01*
X200860436Y-77735000D02*
X201314564Y-77735000D01*
%TO.C,J1*%
X67580000Y-83475000D02*
X67580000Y-84805000D01*
X67580000Y-64365000D02*
X64920000Y-64365000D01*
X64920000Y-82205000D02*
X64920000Y-64365000D01*
X67580000Y-84805000D02*
X66250000Y-84805000D01*
X67580000Y-82205000D02*
X64920000Y-82205000D01*
X67580000Y-82205000D02*
X67580000Y-64365000D01*
%TD*%
%LPC*%
D13*
%TO.C,REF\u002A\u002A*%
X115325000Y-79350000D03*
D14*
X115325000Y-76810000D03*
%TD*%
D15*
%TO.C,U1*%
X177100000Y-70830000D03*
D16*
X144080000Y-86070000D03*
X174560000Y-70830000D03*
X146620000Y-86070000D03*
X172020000Y-70830000D03*
X149160000Y-86070000D03*
X169480000Y-70830000D03*
X151700000Y-86070000D03*
X166940000Y-70830000D03*
X154240000Y-86070000D03*
X164400000Y-70830000D03*
X156780000Y-86070000D03*
X161860000Y-70830000D03*
X159320000Y-86070000D03*
X159320000Y-70830000D03*
X161860000Y-86070000D03*
X156780000Y-70830000D03*
X164400000Y-86070000D03*
X154240000Y-70830000D03*
X166940000Y-86070000D03*
X151700000Y-70830000D03*
X169480000Y-86070000D03*
X149160000Y-70830000D03*
X172020000Y-86070000D03*
X146620000Y-70830000D03*
X174560000Y-86070000D03*
X144080000Y-70830000D03*
X177100000Y-86070000D03*
X141540000Y-70830000D03*
X141540000Y-86070000D03*
%TD*%
D17*
%TO.C,D2*%
X238000000Y-59000000D03*
D18*
X235460000Y-59000000D03*
%TD*%
D19*
%TO.C,R15*%
X130000000Y-63912500D03*
X130000000Y-62087500D03*
%TD*%
%TO.C,R16*%
X61000000Y-59000000D03*
X61000000Y-57175000D03*
%TD*%
D20*
%TO.C,D1*%
X232675000Y-79675000D03*
X232675000Y-76225000D03*
%TD*%
D19*
%TO.C,R2*%
X179000000Y-59000000D03*
X179000000Y-57175000D03*
%TD*%
D21*
%TO.C,D6*%
X90275000Y-76925000D03*
X86825000Y-76925000D03*
%TD*%
D17*
%TO.C,D7*%
X118000000Y-59000000D03*
D18*
X115460000Y-59000000D03*
%TD*%
D19*
%TO.C,R1*%
X220000000Y-59000000D03*
X220000000Y-57175000D03*
%TD*%
D13*
%TO.C,J2*%
X257000000Y-80000000D03*
D14*
X257000000Y-77460000D03*
X257000000Y-74920000D03*
X257000000Y-72380000D03*
X257000000Y-69840000D03*
%TD*%
D22*
%TO.C,R13*%
X207175000Y-79000000D03*
X209000000Y-79000000D03*
%TD*%
%TO.C,R17*%
X108087500Y-59000000D03*
X109912500Y-59000000D03*
%TD*%
D23*
%TO.C,R25*%
X239962500Y-76100000D03*
X238137500Y-76100000D03*
%TD*%
%TO.C,R3*%
X141825000Y-59000000D03*
X140000000Y-59000000D03*
%TD*%
D24*
%TO.C,R21*%
X156000000Y-97087500D03*
X156000000Y-98912500D03*
%TD*%
D23*
%TO.C,R23*%
X77912500Y-99000000D03*
X76087500Y-99000000D03*
%TD*%
D19*
%TO.C,R10*%
X77225000Y-87825000D03*
X77225000Y-86000000D03*
%TD*%
D13*
%TO.C,SW3*%
X147000000Y-99000000D03*
D14*
X144460000Y-99000000D03*
%TD*%
D17*
%TO.C,D8*%
X79000000Y-59000000D03*
D18*
X76460000Y-59000000D03*
%TD*%
D22*
%TO.C,R9*%
X96350000Y-82500000D03*
X98175000Y-82500000D03*
%TD*%
D13*
%TO.C,SW1*%
X227000000Y-99000000D03*
D14*
X224460000Y-99000000D03*
%TD*%
D13*
%TO.C,SW2*%
X187000000Y-99000000D03*
D14*
X184460000Y-99000000D03*
%TD*%
D17*
%TO.C,D4*%
X159000000Y-59000000D03*
D18*
X156460000Y-59000000D03*
%TD*%
D23*
%TO.C,R7*%
X150912500Y-59000000D03*
X149087500Y-59000000D03*
%TD*%
D17*
%TO.C,D3*%
X198540000Y-59000000D03*
D18*
X196000000Y-59000000D03*
%TD*%
D22*
%TO.C,R8*%
X96262500Y-76925000D03*
X98087500Y-76925000D03*
%TD*%
D21*
%TO.C,D5*%
X90550000Y-82400000D03*
X87100000Y-82400000D03*
%TD*%
D23*
%TO.C,R5*%
X229912500Y-59000000D03*
X228087500Y-59000000D03*
%TD*%
D22*
%TO.C,R4*%
X237962500Y-80525000D03*
X239787500Y-80525000D03*
%TD*%
D25*
%TO.C,Q1*%
X226851400Y-79540000D03*
X226851400Y-77000000D03*
X226851400Y-74460000D03*
X217148600Y-74460000D03*
X217148600Y-77000000D03*
X217148600Y-79540000D03*
%TD*%
D24*
%TO.C,R19*%
X234000000Y-97087500D03*
X234000000Y-98912500D03*
%TD*%
D19*
%TO.C,R11*%
X77225000Y-75200000D03*
X77225000Y-73375000D03*
%TD*%
D24*
%TO.C,R20*%
X197000000Y-97087500D03*
X197000000Y-98912500D03*
%TD*%
%TO.C,R22*%
X115912500Y-97087500D03*
X115912500Y-98912500D03*
%TD*%
D22*
%TO.C,R18*%
X69087500Y-59000000D03*
X70912500Y-59000000D03*
%TD*%
D13*
%TO.C,SW4*%
X107000000Y-99000000D03*
D14*
X104460000Y-99000000D03*
%TD*%
D13*
%TO.C,SW5*%
X67000000Y-99000000D03*
D14*
X64460000Y-99000000D03*
%TD*%
D23*
%TO.C,R6*%
X189912500Y-59000000D03*
X188087500Y-59000000D03*
%TD*%
D19*
%TO.C,R12*%
X77250000Y-67912500D03*
X77250000Y-66087500D03*
%TD*%
D22*
%TO.C,R14*%
X200175000Y-77000000D03*
X202000000Y-77000000D03*
%TD*%
D13*
%TO.C,J1*%
X66250000Y-83475000D03*
D14*
X66250000Y-80935000D03*
X66250000Y-78395000D03*
X66250000Y-75855000D03*
X66250000Y-73315000D03*
X66250000Y-70775000D03*
X66250000Y-68235000D03*
X66250000Y-65695000D03*
%TD*%
M02*
