%TF.GenerationSoftware,KiCad,Pcbnew,(6.0.0-0)*%
%TF.CreationDate,2024-09-02T12:42:36-04:00*%
%TF.ProjectId,HappySwitchV3,48617070-7953-4776-9974-636856332e6b,rev?*%
%TF.SameCoordinates,Original*%
%TF.FileFunction,Legend,Bot*%
%TF.FilePolarity,Positive*%
%FSLAX46Y46*%
G04 Gerber Fmt 4.6, Leading zero omitted, Abs format (unit mm)*
G04 Created by KiCad (PCBNEW (6.0.0-0)) date 2024-09-02 12:42:36*
%MOMM*%
%LPD*%
G01*
G04 APERTURE LIST*
%ADD10R,1.700000X1.700000*%
%ADD11O,1.700000X1.700000*%
%ADD12R,1.600000X1.600000*%
%ADD13O,1.600000X1.600000*%
%ADD14R,1.800000X1.800000*%
%ADD15C,1.800000*%
G04 APERTURE END LIST*
%LPC*%
D10*
%TO.C,REF\u002A\u002A*%
X115325000Y-79350000D03*
D11*
X115325000Y-76810000D03*
%TD*%
D12*
%TO.C,U1*%
X177100000Y-70830000D03*
D13*
X144080000Y-86070000D03*
X174560000Y-70830000D03*
X146620000Y-86070000D03*
X172020000Y-70830000D03*
X149160000Y-86070000D03*
X169480000Y-70830000D03*
X151700000Y-86070000D03*
X166940000Y-70830000D03*
X154240000Y-86070000D03*
X164400000Y-70830000D03*
X156780000Y-86070000D03*
X161860000Y-70830000D03*
X159320000Y-86070000D03*
X159320000Y-70830000D03*
X161860000Y-86070000D03*
X156780000Y-70830000D03*
X164400000Y-86070000D03*
X154240000Y-70830000D03*
X166940000Y-86070000D03*
X151700000Y-70830000D03*
X169480000Y-86070000D03*
X149160000Y-70830000D03*
X172020000Y-86070000D03*
X146620000Y-70830000D03*
X174560000Y-86070000D03*
X144080000Y-70830000D03*
X177100000Y-86070000D03*
X141540000Y-70830000D03*
X141540000Y-86070000D03*
%TD*%
D14*
%TO.C,D2*%
X238000000Y-59000000D03*
D15*
X235460000Y-59000000D03*
%TD*%
D14*
%TO.C,D7*%
X118000000Y-59000000D03*
D15*
X115460000Y-59000000D03*
%TD*%
D10*
%TO.C,J2*%
X257000000Y-80000000D03*
D11*
X257000000Y-77460000D03*
X257000000Y-74920000D03*
X257000000Y-72380000D03*
X257000000Y-69840000D03*
%TD*%
D10*
%TO.C,SW3*%
X147000000Y-99000000D03*
D11*
X144460000Y-99000000D03*
%TD*%
D14*
%TO.C,D8*%
X79000000Y-59000000D03*
D15*
X76460000Y-59000000D03*
%TD*%
D10*
%TO.C,SW1*%
X227000000Y-99000000D03*
D11*
X224460000Y-99000000D03*
%TD*%
D10*
%TO.C,SW2*%
X187000000Y-99000000D03*
D11*
X184460000Y-99000000D03*
%TD*%
D14*
%TO.C,D4*%
X159000000Y-59000000D03*
D15*
X156460000Y-59000000D03*
%TD*%
D14*
%TO.C,D3*%
X198540000Y-59000000D03*
D15*
X196000000Y-59000000D03*
%TD*%
D10*
%TO.C,SW4*%
X107000000Y-99000000D03*
D11*
X104460000Y-99000000D03*
%TD*%
D10*
%TO.C,SW5*%
X67000000Y-99000000D03*
D11*
X64460000Y-99000000D03*
%TD*%
D10*
%TO.C,J1*%
X66250000Y-83475000D03*
D11*
X66250000Y-80935000D03*
X66250000Y-78395000D03*
X66250000Y-75855000D03*
X66250000Y-73315000D03*
X66250000Y-70775000D03*
X66250000Y-68235000D03*
X66250000Y-65695000D03*
%TD*%
M02*
